<svg xmlns="http://www.w3.org/2000/svg" width="169.675" height="335.491" viewBox="0 0 169.675 335.491">
  <g id="Grupo_32" data-name="Grupo 32" transform="translate(-4559.722 816.894)">
    <g id="Grupo_24" data-name="Grupo 24" transform="translate(4559.722 -799.744)">
      <path id="Trazado_30" data-name="Trazado 30" d="M4701.7-754.969a27.729,27.729,0,0,0,27.7-27.693,27.732,27.732,0,0,0-27.7-27.7H4587.42a27.729,27.729,0,0,0-27.7,27.7,27.726,27.726,0,0,0,27.7,27.693,27.728,27.728,0,0,0,27.7-27.693,3.922,3.922,0,0,0-3.916-3.916,3.921,3.921,0,0,0-3.915,3.916A19.887,19.887,0,0,1,4587.42-762.8a19.887,19.887,0,0,1-19.866-19.862,19.889,19.889,0,0,1,19.866-19.867H4701.7a19.89,19.89,0,0,1,19.867,19.867A19.887,19.887,0,0,1,4701.7-762.8a19.884,19.884,0,0,1-19.858-19.862,3.921,3.921,0,0,0-3.915-3.916,3.921,3.921,0,0,0-3.916,3.916A27.723,27.723,0,0,0,4701.7-754.969Z" transform="translate(-4559.723 810.359)" fill="#006bdc"/>
    </g>
    <g id="Grupo_25" data-name="Grupo 25" transform="translate(4587.679 -816.894)">
      <path id="Trazado_31" data-name="Trazado 31" d="M4680.219-816.894h-105.93a3.92,3.92,0,0,0-3.914,3.916,3.919,3.919,0,0,0,3.914,3.916h105.93a3.921,3.921,0,0,0,3.919-3.916A3.923,3.923,0,0,0,4680.219-816.894Z" transform="translate(-4570.375 816.894)" fill="#006bdc"/>
    </g>
    <g id="Grupo_26" data-name="Grupo 26" transform="translate(4625.883 -775.961)">
      <path id="Trazado_32" data-name="Trazado 32" d="M4618.366-801.3h-29.52a3.92,3.92,0,0,0-3.914,3.916,3.918,3.918,0,0,0,3.914,3.916h29.52a3.92,3.92,0,0,0,3.919-3.916A3.921,3.921,0,0,0,4618.366-801.3Z" transform="translate(-4584.933 801.297)" fill="#006bdc"/>
    </g>
    <g id="Grupo_27" data-name="Grupo 27" transform="translate(4640.829 -752.894)">
      <path id="Trazado_33" data-name="Trazado 33" d="M4593.966-521.17a4.484,4.484,0,0,1-4.482-4.485V-788.034a4.486,4.486,0,0,1,4.482-4.485,4.486,4.486,0,0,1,4.485,4.485v262.379A4.484,4.484,0,0,1,4593.966-521.17Z" transform="translate(-4589.484 792.519)" fill="#006bdc"/>
    </g>
    <g id="Grupo_28" data-name="Grupo 28" transform="translate(4611.446 -728.894)">
      <path id="Trazado_34" data-name="Trazado 34" d="M4583.914-534.459a4.482,4.482,0,0,1-4.482-4.482V-777.465a4.482,4.482,0,0,1,4.482-4.482,4.484,4.484,0,0,1,4.484,4.482v238.524A4.484,4.484,0,0,1,4583.914-534.459Z" transform="translate(-4579.432 781.947)" fill="#006bdc"/>
    </g>
    <g id="Grupo_29" data-name="Grupo 29" transform="translate(4581.622 -728.894)">
      <path id="Trazado_35" data-name="Trazado 35" d="M4572.549-534.459a4.484,4.484,0,0,1-4.482-4.482V-777.465a4.484,4.484,0,0,1,4.482-4.482,4.484,4.484,0,0,1,4.485,4.482v238.524A4.484,4.484,0,0,1,4572.549-534.459Z" transform="translate(-4568.067 781.947)" fill="#006bdc"/>
    </g>
    <g id="Grupo_30" data-name="Grupo 30" transform="translate(4670.038 -728.894)">
      <path id="Trazado_36" data-name="Trazado 36" d="M4606.239-535.937a4.484,4.484,0,0,1-4.482-4.485V-778.943a4.484,4.484,0,0,1,4.482-4.485,4.484,4.484,0,0,1,4.485,4.485v238.521A4.484,4.484,0,0,1,4606.239-535.937Z" transform="translate(-4601.757 783.428)" fill="#006bdc"/>
    </g>
    <g id="Grupo_31" data-name="Grupo 31" transform="translate(4699.862 -728.894)">
      <path id="Trazado_37" data-name="Trazado 37" d="M4617.606-535.937a4.485,4.485,0,0,1-4.485-4.485V-778.943a4.485,4.485,0,0,1,4.485-4.485,4.484,4.484,0,0,1,4.482,4.485v238.521A4.484,4.484,0,0,1,4617.606-535.937Z" transform="translate(-4613.121 783.428)" fill="#006bdc"/>
    </g>
  </g>
</svg>
