<svg xmlns="http://www.w3.org/2000/svg" width="363.88" height="55.298" viewBox="0 0 363.88 55.298">
  <g id="Grupo_288" data-name="Grupo 288" transform="translate(-8444.779 971.967)">
    <g id="Grupo_214" data-name="Grupo 214" transform="translate(8444.779 -920.351)">
      <path id="Trazado_174" data-name="Trazado 174" d="M8806.818-708.052h-360.2a1.841,1.841,0,0,1-1.841-1.841,1.841,1.841,0,0,1,1.841-1.841h360.2a1.841,1.841,0,0,1,1.841,1.841A1.841,1.841,0,0,1,8806.818-708.052Z" transform="translate(-8444.779 711.734)" fill="#006bdc"/>
    </g>
    <g id="Grupo_287" data-name="Grupo 287" transform="translate(8456.034 -971.967)">
      <g id="Grupo_220" data-name="Grupo 220" transform="translate(58.311)">
        <g id="Grupo_217" data-name="Grupo 217" transform="translate(4.206 7.479)">
          <g id="Grupo_215" data-name="Grupo 215">
            <rect id="Rectángulo_48" data-name="Rectángulo 48" width="2.975" height="38.742" fill="#006bdc"/>
          </g>
          <g id="Grupo_216" data-name="Grupo 216" transform="translate(8.487)">
            <rect id="Rectángulo_49" data-name="Rectángulo 49" width="2.975" height="38.742" fill="#006bdc"/>
          </g>
        </g>
        <g id="Grupo_218" data-name="Grupo 218">
          <path id="Trazado_175" data-name="Trazado 175" d="M8809.617-962.7h-8.342a5.773,5.773,0,0,1-5.767-5.766v-3.5h19.875v3.5A5.773,5.773,0,0,1,8809.617-962.7Zm-11.133-6.29v.523a2.794,2.794,0,0,0,2.791,2.791h8.342a2.794,2.794,0,0,0,2.791-2.791v-.523Z" transform="translate(-8795.509 971.967)" fill="#006bdc"/>
        </g>
        <g id="Grupo_219" data-name="Grupo 219" transform="translate(0 44.133)">
          <path id="Trazado_176" data-name="Trazado 176" d="M8815.384-741.683h-2.976v-2.011a2.794,2.794,0,0,0-2.791-2.791h-8.342a2.794,2.794,0,0,0-2.791,2.791v2.011h-2.976v-2.011a5.773,5.773,0,0,1,5.767-5.766h8.342a5.773,5.773,0,0,1,5.767,5.766Z" transform="translate(-8795.509 749.46)" fill="#006bdc"/>
        </g>
      </g>
      <g id="Grupo_226" data-name="Grupo 226" transform="translate(29.155)">
        <g id="Grupo_223" data-name="Grupo 223" transform="translate(4.206 7.479)">
          <g id="Grupo_221" data-name="Grupo 221">
            <rect id="Rectángulo_50" data-name="Rectángulo 50" width="2.975" height="38.742" fill="#006bdc"/>
          </g>
          <g id="Grupo_222" data-name="Grupo 222" transform="translate(8.487)">
            <rect id="Rectángulo_51" data-name="Rectángulo 51" width="2.975" height="38.742" fill="#006bdc"/>
          </g>
        </g>
        <g id="Grupo_224" data-name="Grupo 224">
          <path id="Trazado_177" data-name="Trazado 177" d="M8662.624-962.7h-8.342a5.773,5.773,0,0,1-5.767-5.766v-3.5h19.875v3.5A5.773,5.773,0,0,1,8662.624-962.7Zm-11.134-6.29v.523a2.8,2.8,0,0,0,2.792,2.791h8.342a2.794,2.794,0,0,0,2.791-2.791v-.523Z" transform="translate(-8648.516 971.967)" fill="#006bdc"/>
        </g>
        <g id="Grupo_225" data-name="Grupo 225" transform="translate(0 44.133)">
          <path id="Trazado_178" data-name="Trazado 178" d="M8668.391-741.683h-2.976v-2.011a2.794,2.794,0,0,0-2.791-2.791h-8.342a2.8,2.8,0,0,0-2.792,2.791v2.011h-2.975v-2.011a5.773,5.773,0,0,1,5.767-5.766h8.342a5.773,5.773,0,0,1,5.767,5.766Z" transform="translate(-8648.516 749.46)" fill="#006bdc"/>
        </g>
      </g>
      <g id="Grupo_232" data-name="Grupo 232" transform="translate(0)">
        <g id="Grupo_229" data-name="Grupo 229" transform="translate(4.206 7.479)">
          <g id="Grupo_227" data-name="Grupo 227">
            <rect id="Rectángulo_52" data-name="Rectángulo 52" width="2.975" height="38.742" fill="#006bdc"/>
          </g>
          <g id="Grupo_228" data-name="Grupo 228" transform="translate(8.487)">
            <rect id="Rectángulo_53" data-name="Rectángulo 53" width="2.975" height="38.742" fill="#006bdc"/>
          </g>
        </g>
        <g id="Grupo_230" data-name="Grupo 230">
          <path id="Trazado_179" data-name="Trazado 179" d="M8515.631-962.7h-8.343a5.773,5.773,0,0,1-5.767-5.766v-3.5H8521.4v3.5A5.772,5.772,0,0,1,8515.631-962.7Zm-11.134-6.29v.523a2.794,2.794,0,0,0,2.791,2.791h8.343a2.794,2.794,0,0,0,2.791-2.791v-.523Z" transform="translate(-8501.521 971.967)" fill="#006bdc"/>
        </g>
        <g id="Grupo_231" data-name="Grupo 231" transform="translate(0 44.133)">
          <path id="Trazado_180" data-name="Trazado 180" d="M8521.4-741.683h-2.975v-2.011a2.794,2.794,0,0,0-2.791-2.791h-8.343a2.794,2.794,0,0,0-2.791,2.791v2.011h-2.976v-2.011a5.773,5.773,0,0,1,5.767-5.766h8.343a5.772,5.772,0,0,1,5.766,5.766Z" transform="translate(-8501.521 749.46)" fill="#006bdc"/>
        </g>
      </g>
      <g id="Grupo_238" data-name="Grupo 238" transform="translate(145.777)">
        <g id="Grupo_235" data-name="Grupo 235" transform="translate(4.206 7.479)">
          <g id="Grupo_233" data-name="Grupo 233">
            <rect id="Rectángulo_54" data-name="Rectángulo 54" width="2.975" height="38.742" fill="#006bdc"/>
          </g>
          <g id="Grupo_234" data-name="Grupo 234" transform="translate(8.487)">
            <rect id="Rectángulo_55" data-name="Rectángulo 55" width="2.975" height="38.742" fill="#006bdc"/>
          </g>
        </g>
        <g id="Grupo_236" data-name="Grupo 236">
          <path id="Trazado_181" data-name="Trazado 181" d="M9250.6-962.7h-8.342a5.773,5.773,0,0,1-5.767-5.766v-3.5h19.875v3.5A5.773,5.773,0,0,1,9250.6-962.7Zm-11.133-6.29v.523a2.794,2.794,0,0,0,2.791,2.791h8.342a2.794,2.794,0,0,0,2.792-2.791v-.523Z" transform="translate(-9236.488 971.967)" fill="#006bdc"/>
        </g>
        <g id="Grupo_237" data-name="Grupo 237" transform="translate(0 44.133)">
          <path id="Trazado_182" data-name="Trazado 182" d="M9256.363-741.683h-2.975v-2.011a2.794,2.794,0,0,0-2.792-2.791h-8.342a2.794,2.794,0,0,0-2.791,2.791v2.011h-2.976v-2.011a5.773,5.773,0,0,1,5.767-5.766h8.342a5.773,5.773,0,0,1,5.767,5.766Z" transform="translate(-9236.488 749.46)" fill="#006bdc"/>
        </g>
      </g>
      <g id="Grupo_244" data-name="Grupo 244" transform="translate(116.621)">
        <g id="Grupo_241" data-name="Grupo 241" transform="translate(4.206 7.479)">
          <g id="Grupo_239" data-name="Grupo 239">
            <rect id="Rectángulo_56" data-name="Rectángulo 56" width="2.975" height="38.742" fill="#006bdc"/>
          </g>
          <g id="Grupo_240" data-name="Grupo 240" transform="translate(8.487)">
            <rect id="Rectángulo_57" data-name="Rectángulo 57" width="2.975" height="38.742" fill="#006bdc"/>
          </g>
        </g>
        <g id="Grupo_242" data-name="Grupo 242">
          <path id="Trazado_183" data-name="Trazado 183" d="M9103.6-962.7h-8.342a5.773,5.773,0,0,1-5.767-5.766v-3.5h19.875v3.5A5.773,5.773,0,0,1,9103.6-962.7Zm-11.133-6.29v.523a2.794,2.794,0,0,0,2.791,2.791h8.342a2.794,2.794,0,0,0,2.791-2.791v-.523Z" transform="translate(-9089.495 971.967)" fill="#006bdc"/>
        </g>
        <g id="Grupo_243" data-name="Grupo 243" transform="translate(0 44.133)">
          <path id="Trazado_184" data-name="Trazado 184" d="M9109.37-741.683h-2.976v-2.011a2.794,2.794,0,0,0-2.791-2.791h-8.342a2.794,2.794,0,0,0-2.791,2.791v2.011H9089.5v-2.011a5.773,5.773,0,0,1,5.767-5.766h8.342a5.773,5.773,0,0,1,5.767,5.766Z" transform="translate(-9089.495 749.46)" fill="#006bdc"/>
        </g>
      </g>
      <g id="Grupo_250" data-name="Grupo 250" transform="translate(87.466)">
        <g id="Grupo_247" data-name="Grupo 247" transform="translate(4.206 7.479)">
          <g id="Grupo_245" data-name="Grupo 245">
            <rect id="Rectángulo_58" data-name="Rectángulo 58" width="2.975" height="38.742" fill="#006bdc"/>
          </g>
          <g id="Grupo_246" data-name="Grupo 246" transform="translate(8.487)">
            <rect id="Rectángulo_59" data-name="Rectángulo 59" width="2.975" height="38.742" fill="#006bdc"/>
          </g>
        </g>
        <g id="Grupo_248" data-name="Grupo 248">
          <path id="Trazado_185" data-name="Trazado 185" d="M8956.61-962.7h-8.342a5.773,5.773,0,0,1-5.767-5.766v-3.5h19.875v3.5A5.773,5.773,0,0,1,8956.61-962.7Zm-11.133-6.29v.523a2.794,2.794,0,0,0,2.791,2.791h8.342a2.794,2.794,0,0,0,2.791-2.791v-.523Z" transform="translate(-8942.502 971.967)" fill="#006bdc"/>
        </g>
        <g id="Grupo_249" data-name="Grupo 249" transform="translate(0 44.133)">
          <path id="Trazado_186" data-name="Trazado 186" d="M8962.377-741.683H8959.4v-2.011a2.794,2.794,0,0,0-2.791-2.791h-8.342a2.794,2.794,0,0,0-2.791,2.791v2.011H8942.5v-2.011a5.773,5.773,0,0,1,5.767-5.766h8.342a5.773,5.773,0,0,1,5.767,5.766Z" transform="translate(-8942.502 749.46)" fill="#006bdc"/>
        </g>
      </g>
      <g id="Grupo_256" data-name="Grupo 256" transform="translate(233.243)">
        <g id="Grupo_253" data-name="Grupo 253" transform="translate(4.206 7.479)">
          <g id="Grupo_251" data-name="Grupo 251">
            <rect id="Rectángulo_60" data-name="Rectángulo 60" width="2.975" height="38.742" fill="#006bdc"/>
          </g>
          <g id="Grupo_252" data-name="Grupo 252" transform="translate(8.487)">
            <rect id="Rectángulo_61" data-name="Rectángulo 61" width="2.975" height="38.742" fill="#006bdc"/>
          </g>
        </g>
        <g id="Grupo_254" data-name="Grupo 254">
          <path id="Trazado_187" data-name="Trazado 187" d="M9691.578-962.7h-8.343a5.773,5.773,0,0,1-5.767-5.766v-3.5h19.875v3.5A5.773,5.773,0,0,1,9691.578-962.7Zm-11.134-6.29v.523a2.794,2.794,0,0,0,2.791,2.791h8.343a2.794,2.794,0,0,0,2.791-2.791v-.523Z" transform="translate(-9677.469 971.967)" fill="#006bdc"/>
        </g>
        <g id="Grupo_255" data-name="Grupo 255" transform="translate(0 44.133)">
          <path id="Trazado_188" data-name="Trazado 188" d="M9697.344-741.683h-2.975v-2.011a2.794,2.794,0,0,0-2.791-2.791h-8.343a2.794,2.794,0,0,0-2.791,2.791v2.011h-2.976v-2.011a5.773,5.773,0,0,1,5.767-5.766h8.343a5.773,5.773,0,0,1,5.766,5.766Z" transform="translate(-9677.469 749.46)" fill="#006bdc"/>
        </g>
      </g>
      <g id="Grupo_262" data-name="Grupo 262" transform="translate(204.087)">
        <g id="Grupo_259" data-name="Grupo 259" transform="translate(4.206 7.479)">
          <g id="Grupo_257" data-name="Grupo 257">
            <rect id="Rectángulo_62" data-name="Rectángulo 62" width="2.975" height="38.742" fill="#006bdc"/>
          </g>
          <g id="Grupo_258" data-name="Grupo 258" transform="translate(8.487)">
            <rect id="Rectángulo_63" data-name="Rectángulo 63" width="2.975" height="38.742" fill="#006bdc"/>
          </g>
        </g>
        <g id="Grupo_260" data-name="Grupo 260">
          <path id="Trazado_189" data-name="Trazado 189" d="M9544.584-962.7h-8.342a5.773,5.773,0,0,1-5.767-5.766v-3.5h19.875v3.5A5.773,5.773,0,0,1,9544.584-962.7Zm-11.133-6.29v.523a2.794,2.794,0,0,0,2.791,2.791h8.342a2.8,2.8,0,0,0,2.792-2.791v-.523Z" transform="translate(-9530.476 971.967)" fill="#006bdc"/>
        </g>
        <g id="Grupo_261" data-name="Grupo 261" transform="translate(0 44.133)">
          <path id="Trazado_190" data-name="Trazado 190" d="M9550.351-741.683h-2.975v-2.011a2.8,2.8,0,0,0-2.792-2.791h-8.342a2.794,2.794,0,0,0-2.791,2.791v2.011h-2.976v-2.011a5.773,5.773,0,0,1,5.767-5.766h8.342a5.773,5.773,0,0,1,5.767,5.766Z" transform="translate(-9530.476 749.46)" fill="#006bdc"/>
        </g>
      </g>
      <g id="Grupo_268" data-name="Grupo 268" transform="translate(174.932)">
        <g id="Grupo_265" data-name="Grupo 265" transform="translate(4.206 7.479)">
          <g id="Grupo_263" data-name="Grupo 263">
            <rect id="Rectángulo_64" data-name="Rectángulo 64" width="2.975" height="38.742" fill="#006bdc"/>
          </g>
          <g id="Grupo_264" data-name="Grupo 264" transform="translate(8.487)">
            <rect id="Rectángulo_65" data-name="Rectángulo 65" width="2.975" height="38.742" fill="#006bdc"/>
          </g>
        </g>
        <g id="Grupo_266" data-name="Grupo 266">
          <path id="Trazado_191" data-name="Trazado 191" d="M9397.59-962.7h-8.342a5.773,5.773,0,0,1-5.767-5.766v-3.5h19.875v3.5A5.773,5.773,0,0,1,9397.59-962.7Zm-11.133-6.29v.523a2.794,2.794,0,0,0,2.791,2.791h8.342a2.8,2.8,0,0,0,2.792-2.791v-.523Z" transform="translate(-9383.481 971.967)" fill="#006bdc"/>
        </g>
        <g id="Grupo_267" data-name="Grupo 267" transform="translate(0 44.133)">
          <path id="Trazado_192" data-name="Trazado 192" d="M9403.356-741.683h-2.975v-2.011a2.8,2.8,0,0,0-2.792-2.791h-8.342a2.794,2.794,0,0,0-2.791,2.791v2.011h-2.976v-2.011a5.773,5.773,0,0,1,5.767-5.766h8.342a5.773,5.773,0,0,1,5.767,5.766Z" transform="translate(-9383.481 749.46)" fill="#006bdc"/>
        </g>
      </g>
      <g id="Grupo_274" data-name="Grupo 274" transform="translate(320.708)">
        <g id="Grupo_271" data-name="Grupo 271" transform="translate(4.206 7.479)">
          <g id="Grupo_269" data-name="Grupo 269">
            <rect id="Rectángulo_66" data-name="Rectángulo 66" width="2.975" height="38.742" fill="#006bdc"/>
          </g>
          <g id="Grupo_270" data-name="Grupo 270" transform="translate(8.487)">
            <rect id="Rectángulo_67" data-name="Rectángulo 67" width="2.975" height="38.742" fill="#006bdc"/>
          </g>
        </g>
        <g id="Grupo_272" data-name="Grupo 272">
          <path id="Trazado_193" data-name="Trazado 193" d="M10132.557-962.7h-8.342a5.773,5.773,0,0,1-5.767-5.766v-3.5h19.875v3.5A5.773,5.773,0,0,1,10132.557-962.7Zm-11.133-6.29v.523a2.794,2.794,0,0,0,2.791,2.791h8.342a2.8,2.8,0,0,0,2.792-2.791v-.523Z" transform="translate(-10118.448 971.967)" fill="#006bdc"/>
        </g>
        <g id="Grupo_273" data-name="Grupo 273" transform="translate(0 44.133)">
          <path id="Trazado_194" data-name="Trazado 194" d="M10138.323-741.683h-2.975v-2.011a2.8,2.8,0,0,0-2.792-2.791h-8.342a2.794,2.794,0,0,0-2.791,2.791v2.011h-2.976v-2.011a5.773,5.773,0,0,1,5.767-5.766h8.342a5.773,5.773,0,0,1,5.767,5.766Z" transform="translate(-10118.448 749.46)" fill="#006bdc"/>
        </g>
      </g>
      <g id="Grupo_280" data-name="Grupo 280" transform="translate(291.553)">
        <g id="Grupo_277" data-name="Grupo 277" transform="translate(4.206 7.479)">
          <g id="Grupo_275" data-name="Grupo 275">
            <rect id="Rectángulo_68" data-name="Rectángulo 68" width="2.975" height="38.742" fill="#006bdc"/>
          </g>
          <g id="Grupo_276" data-name="Grupo 276" transform="translate(8.487)">
            <rect id="Rectángulo_69" data-name="Rectángulo 69" width="2.975" height="38.742" fill="#006bdc"/>
          </g>
        </g>
        <g id="Grupo_278" data-name="Grupo 278">
          <path id="Trazado_195" data-name="Trazado 195" d="M9985.564-962.7h-8.343a5.773,5.773,0,0,1-5.767-5.766v-3.5h19.875v3.5A5.773,5.773,0,0,1,9985.564-962.7Zm-11.134-6.29v.523a2.794,2.794,0,0,0,2.791,2.791h8.343a2.794,2.794,0,0,0,2.791-2.791v-.523Z" transform="translate(-9971.455 971.967)" fill="#006bdc"/>
        </g>
        <g id="Grupo_279" data-name="Grupo 279" transform="translate(0 44.133)">
          <path id="Trazado_196" data-name="Trazado 196" d="M9991.33-741.683h-2.975v-2.011a2.794,2.794,0,0,0-2.791-2.791h-8.343a2.794,2.794,0,0,0-2.791,2.791v2.011h-2.976v-2.011a5.773,5.773,0,0,1,5.767-5.766h8.343a5.773,5.773,0,0,1,5.766,5.766Z" transform="translate(-9971.455 749.46)" fill="#006bdc"/>
        </g>
      </g>
      <g id="Grupo_286" data-name="Grupo 286" transform="translate(262.398)">
        <g id="Grupo_283" data-name="Grupo 283" transform="translate(4.206 7.479)">
          <g id="Grupo_281" data-name="Grupo 281">
            <rect id="Rectángulo_70" data-name="Rectángulo 70" width="2.975" height="38.742" fill="#006bdc"/>
          </g>
          <g id="Grupo_282" data-name="Grupo 282" transform="translate(8.487)">
            <rect id="Rectángulo_71" data-name="Rectángulo 71" width="2.975" height="38.742" fill="#006bdc"/>
          </g>
        </g>
        <g id="Grupo_284" data-name="Grupo 284">
          <path id="Trazado_197" data-name="Trazado 197" d="M9838.57-962.7h-8.342a5.773,5.773,0,0,1-5.767-5.766v-3.5h19.875v3.5A5.773,5.773,0,0,1,9838.57-962.7Zm-11.133-6.29v.523a2.794,2.794,0,0,0,2.791,2.791h8.342a2.8,2.8,0,0,0,2.792-2.791v-.523Z" transform="translate(-9824.462 971.967)" fill="#006bdc"/>
        </g>
        <g id="Grupo_285" data-name="Grupo 285" transform="translate(0 44.133)">
          <path id="Trazado_198" data-name="Trazado 198" d="M9844.337-741.683h-2.975v-2.011a2.8,2.8,0,0,0-2.792-2.791h-8.342a2.794,2.794,0,0,0-2.791,2.791v2.011h-2.976v-2.011a5.773,5.773,0,0,1,5.767-5.766h8.342a5.773,5.773,0,0,1,5.767,5.766Z" transform="translate(-9824.462 749.46)" fill="#006bdc"/>
        </g>
      </g>
    </g>
  </g>
</svg>
