<svg xmlns="http://www.w3.org/2000/svg" xmlns:xlink="http://www.w3.org/1999/xlink" width="729.815" height="413.21" viewBox="0 0 729.815 413.21">
  <defs>
    <clipPath id="clip-path">
      <path id="Trazado_83" data-name="Trazado 83" d="M5934.187-1695.25H5697.23l-132.812,211.319" transform="translate(-5564.418 1695.25)" fill="none" stroke="#2a7de1" stroke-width="4"/>
    </clipPath>
  </defs>
  <g id="Grupo_293" data-name="Grupo 293" transform="translate(-486 -1607.677)">
    <g id="Grupo_115" data-name="Grupo 115" transform="translate(488 1656.518)">
      <g id="Grupo_33" data-name="Grupo 33" transform="translate(421.74)">
        <rect id="Rectángulo_19" data-name="Rectángulo 19" width="3.248" height="316.596" fill="#006bdc" stroke="#2a7de1" stroke-width="4"/>
      </g>
      <g id="Grupo_34" data-name="Grupo 34" transform="translate(0 264.099)">
        <path id="Trazado_38" data-name="Trazado 38" d="M5563.372-612.952h421a1.624,1.624,0,0,0,1.624-1.624,1.624,1.624,0,0,0-1.624-1.624h-421a1.624,1.624,0,0,0-1.624,1.624A1.624,1.624,0,0,0,5563.372-612.952Z" transform="translate(-5561.748 616.2)" fill="#006bdc" stroke="#2a7de1" stroke-width="4"/>
      </g>
      <g id="Grupo_35" data-name="Grupo 35" transform="translate(13.123 290.765)">
        <path id="Trazado_39" data-name="Trazado 39" d="M5563.373-489.809h407.878a1.624,1.624,0,0,0,1.624-1.624,1.624,1.624,0,0,0-1.624-1.624H5563.373a1.624,1.624,0,0,0-1.624,1.624A1.624,1.624,0,0,0,5563.373-489.809Z" transform="translate(-5561.749 493.057)" fill="#006bdc" stroke="#2a7de1" stroke-width="4"/>
      </g>
      <g id="Grupo_36" data-name="Grupo 36" transform="translate(0 185.844)">
        <path id="Trazado_40" data-name="Trazado 40" d="M5488.142-974.331h437.291a1.624,1.624,0,0,0,1.625-1.624,1.624,1.624,0,0,0-1.625-1.624H5488.142a1.624,1.624,0,0,0-1.625,1.624A1.624,1.624,0,0,0,5488.142-974.331Z" transform="translate(-5486.517 977.579)" fill="#006bdc" stroke="#2a7de1" stroke-width="4"/>
      </g>
      <g id="Grupo_39" data-name="Grupo 39" transform="translate(270.114 10.274)">
        <g id="Grupo_37" data-name="Grupo 37" transform="translate(18.598)">
          <path id="Trazado_41" data-name="Trazado 41" d="M6169.157-1769.211v-17.142a1.956,1.956,0,0,1,2-2,1.956,1.956,0,0,1,2,2v17.142Z" transform="translate(-6169.157 1788.356)" fill="#006bdc" stroke="#2a7de1" stroke-width="4"/>
        </g>
        <g id="Grupo_38" data-name="Grupo 38">
          <path id="Trazado_42" data-name="Trazado 42" d="M6255.043-1769.211v-17.142a1.956,1.956,0,0,1,2-2,1.956,1.956,0,0,1,2,2v17.142Z" transform="translate(-6255.043 1788.356)" fill="#006bdc" stroke="#2a7de1" stroke-width="4"/>
        </g>
      </g>
      <g id="Grupo_42" data-name="Grupo 42" transform="translate(230.354 10.274)">
        <g id="Grupo_40" data-name="Grupo 40" transform="translate(18.598)">
          <path id="Trazado_43" data-name="Trazado 43" d="M6352.77-1769.211v-17.142a1.956,1.956,0,0,1,2-2,1.956,1.956,0,0,1,2,2v17.142Z" transform="translate(-6352.77 1788.356)" fill="#006bdc" stroke="#2a7de1" stroke-width="4"/>
        </g>
        <g id="Grupo_41" data-name="Grupo 41">
          <path id="Trazado_44" data-name="Trazado 44" d="M6438.656-1769.211v-17.142a1.956,1.956,0,0,1,2-2,1.956,1.956,0,0,1,2,2v17.142Z" transform="translate(-6438.656 1788.356)" fill="#006bdc" stroke="#2a7de1" stroke-width="4"/>
        </g>
      </g>
      <g id="Grupo_45" data-name="Grupo 45" transform="translate(190.593 10.274)">
        <g id="Grupo_43" data-name="Grupo 43" transform="translate(18.598)">
          <path id="Trazado_45" data-name="Trazado 45" d="M6536.384-1769.211v-17.142a1.956,1.956,0,0,1,2-2,1.956,1.956,0,0,1,2,2v17.142Z" transform="translate(-6536.384 1788.356)" fill="#006bdc" stroke="#2a7de1" stroke-width="4"/>
        </g>
        <g id="Grupo_44" data-name="Grupo 44">
          <path id="Trazado_46" data-name="Trazado 46" d="M6622.27-1769.211v-17.142a1.956,1.956,0,0,1,2-2,1.955,1.955,0,0,1,2,2v17.142Z" transform="translate(-6622.27 1788.356)" fill="#006bdc" stroke="#2a7de1" stroke-width="4"/>
        </g>
      </g>
      <g id="Grupo_48" data-name="Grupo 48" transform="translate(349.206 10.274)">
        <g id="Grupo_46" data-name="Grupo 46" transform="translate(18.598)">
          <path id="Trazado_47" data-name="Trazado 47" d="M5803.912-1769.211v-17.142a1.956,1.956,0,0,1,2-2,1.956,1.956,0,0,1,2,2v17.142Z" transform="translate(-5803.912 1788.356)" fill="#006bdc" stroke="#2a7de1" stroke-width="4"/>
        </g>
        <g id="Grupo_47" data-name="Grupo 47">
          <path id="Trazado_48" data-name="Trazado 48" d="M5889.8-1769.211v-17.142a1.956,1.956,0,0,1,2-2,1.956,1.956,0,0,1,2,2v17.142Z" transform="translate(-5889.798 1788.356)" fill="#006bdc" stroke="#2a7de1" stroke-width="4"/>
        </g>
      </g>
      <g id="Grupo_51" data-name="Grupo 51" transform="translate(388.966 10.274)">
        <g id="Grupo_49" data-name="Grupo 49" transform="translate(18.598)">
          <path id="Trazado_49" data-name="Trazado 49" d="M5620.3-1769.211v-17.142a1.956,1.956,0,0,1,2-2,1.956,1.956,0,0,1,2,2v17.142Z" transform="translate(-5620.298 1788.356)" fill="#006bdc" stroke="#2a7de1" stroke-width="4"/>
        </g>
        <g id="Grupo_50" data-name="Grupo 50">
          <path id="Trazado_50" data-name="Trazado 50" d="M5706.184-1769.211v-17.142a1.956,1.956,0,0,1,2-2,1.956,1.956,0,0,1,2,2v17.142Z" transform="translate(-5706.184 1788.356)" fill="#006bdc" stroke="#2a7de1" stroke-width="4"/>
        </g>
      </g>
      <g id="Grupo_54" data-name="Grupo 54" transform="translate(309.731 10.274)">
        <g id="Grupo_52" data-name="Grupo 52">
          <path id="Trazado_51" data-name="Trazado 51" d="M6072.09-1769.211v-17.142a1.956,1.956,0,0,1,2-2,1.956,1.956,0,0,1,2,2v17.142Z" transform="translate(-6072.09 1788.356)" fill="#006bdc" stroke="#2a7de1" stroke-width="4"/>
        </g>
        <g id="Grupo_53" data-name="Grupo 53" transform="translate(18.599)">
          <path id="Trazado_52" data-name="Trazado 52" d="M5986.2-1769.211v-17.142a1.956,1.956,0,0,1,2-2,1.956,1.956,0,0,1,2,2v17.142Z" transform="translate(-5986.205 1788.356)" fill="#006bdc" stroke="#2a7de1" stroke-width="4"/>
        </g>
      </g>
      <g id="Grupo_55" data-name="Grupo 55" transform="translate(15.328 109.736)">
        <path id="Trazado_53" data-name="Trazado 53" d="M7450.139-1329.043" transform="translate(-7450.139 1329.043)" fill="#006bdc" stroke="#2a7de1" stroke-width="4"/>
      </g>
      <g id="Grupo_56" data-name="Grupo 56" transform="translate(13.123 87.504)">
        <path id="Trazado_54" data-name="Trazado 54" d="M7446.944-1200.63a1.624,1.624,0,0,0,1.625-1.624v-227.834a1.624,1.624,0,0,0-1.625-1.624,1.624,1.624,0,0,0-1.624,1.624v227.834A1.624,1.624,0,0,0,7446.944-1200.63Z" transform="translate(-7445.32 1431.713)" fill="#006bdc" stroke="#2a7de1" stroke-width="4"/>
      </g>
      <g id="Grupo_57" data-name="Grupo 57" transform="translate(363.709 197.562)">
        <path id="Trazado_55" data-name="Trazado 55" d="M5686.358-854.046h33.556v-52.641a16.8,16.8,0,0,0-16.778-16.778,16.8,16.8,0,0,0-16.778,16.778Zm30.308-3.248h-27.06v-49.393a13.545,13.545,0,0,1,13.53-13.53,13.545,13.545,0,0,1,13.53,13.53Z" transform="translate(-5686.358 923.465)" fill="#006bdc" stroke="#2a7de1" stroke-width="4"/>
      </g>
      <g id="Grupo_58" data-name="Grupo 58" transform="translate(298.456 197.562)">
        <path id="Trazado_56" data-name="Trazado 56" d="M5987.7-854.046h33.556v-52.641a16.8,16.8,0,0,0-16.778-16.778,16.8,16.8,0,0,0-16.778,16.778ZM6018-857.294h-27.06v-49.393a13.545,13.545,0,0,1,13.53-13.53,13.546,13.546,0,0,1,13.53,13.53Z" transform="translate(-5987.695 923.465)" fill="#006bdc" stroke="#2a7de1" stroke-width="4"/>
      </g>
      <g id="Grupo_59" data-name="Grupo 59" transform="translate(233.203 197.562)">
        <path id="Trazado_57" data-name="Trazado 57" d="M6289.033-854.046h33.557v-52.641a16.8,16.8,0,0,0-16.778-16.778,16.8,16.8,0,0,0-16.778,16.778Zm30.308-3.248h-27.06v-49.393a13.545,13.545,0,0,1,13.53-13.53,13.545,13.545,0,0,1,13.53,13.53Z" transform="translate(-6289.033 923.465)" fill="#006bdc" stroke="#2a7de1" stroke-width="4"/>
      </g>
      <g id="Grupo_60" data-name="Grupo 60" transform="translate(167.95 197.562)">
        <path id="Trazado_58" data-name="Trazado 58" d="M6590.371-854.046h33.556v-52.641a16.8,16.8,0,0,0-16.778-16.778,16.8,16.8,0,0,0-16.778,16.778Zm30.308-3.248h-27.06v-49.393a13.545,13.545,0,0,1,13.53-13.53,13.545,13.545,0,0,1,13.53,13.53Z" transform="translate(-6590.371 923.465)" fill="#006bdc" stroke="#2a7de1" stroke-width="4"/>
      </g>
      <g id="Grupo_61" data-name="Grupo 61" transform="translate(102.697 197.562)">
        <path id="Trazado_59" data-name="Trazado 59" d="M6891.706-854.046h33.557v-52.641a16.8,16.8,0,0,0-16.778-16.778,16.8,16.8,0,0,0-16.778,16.778Zm30.309-3.248h-27.06v-49.393a13.545,13.545,0,0,1,13.53-13.53,13.546,13.546,0,0,1,13.53,13.53Z" transform="translate(-6891.706 923.465)" fill="#006bdc" stroke="#2a7de1" stroke-width="4"/>
      </g>
      <g id="Grupo_62" data-name="Grupo 62" transform="translate(363.709 119.133)">
        <path id="Trazado_60" data-name="Trazado 60" d="M5686.358-1216.229h33.556v-52.641a16.8,16.8,0,0,0-16.778-16.778,16.8,16.8,0,0,0-16.778,16.778Zm30.308-3.248h-27.06v-49.393a13.545,13.545,0,0,1,13.53-13.53,13.545,13.545,0,0,1,13.53,13.53Z" transform="translate(-5686.358 1285.648)" fill="#006bdc" stroke="#2a7de1" stroke-width="4"/>
      </g>
      <g id="Grupo_63" data-name="Grupo 63" transform="translate(298.456 119.133)">
        <path id="Trazado_61" data-name="Trazado 61" d="M5987.7-1216.229h33.556v-52.641a16.8,16.8,0,0,0-16.778-16.778,16.8,16.8,0,0,0-16.778,16.778Zm30.308-3.248h-27.06v-49.393a13.545,13.545,0,0,1,13.53-13.53,13.545,13.545,0,0,1,13.53,13.53Z" transform="translate(-5987.695 1285.648)" fill="#006bdc" stroke="#2a7de1" stroke-width="4"/>
      </g>
      <g id="Grupo_64" data-name="Grupo 64" transform="translate(233.203 119.133)">
        <path id="Trazado_62" data-name="Trazado 62" d="M6289.033-1216.229h33.557v-52.641a16.8,16.8,0,0,0-16.778-16.778,16.8,16.8,0,0,0-16.778,16.778Zm30.308-3.248h-27.06v-49.393a13.545,13.545,0,0,1,13.53-13.53,13.545,13.545,0,0,1,13.53,13.53Z" transform="translate(-6289.033 1285.648)" fill="#006bdc" stroke="#2a7de1" stroke-width="4"/>
      </g>
      <g id="Grupo_65" data-name="Grupo 65" transform="translate(167.95 119.133)">
        <path id="Trazado_63" data-name="Trazado 63" d="M6590.371-1216.229h33.556v-52.641a16.8,16.8,0,0,0-16.778-16.778,16.8,16.8,0,0,0-16.778,16.778Zm30.308-3.248h-27.06v-49.393a13.545,13.545,0,0,1,13.53-13.53,13.545,13.545,0,0,1,13.53,13.53Z" transform="translate(-6590.371 1285.648)" fill="#006bdc" stroke="#2a7de1" stroke-width="4"/>
      </g>
      <g id="Grupo_66" data-name="Grupo 66" transform="translate(37.444 119.133)">
        <path id="Trazado_64" data-name="Trazado 64" d="M7193.043-1216.229H7226.6v-52.641a16.8,16.8,0,0,0-16.778-16.778,16.8,16.8,0,0,0-16.778,16.778Zm30.308-3.248h-27.06v-49.393a13.545,13.545,0,0,1,13.53-13.53,13.545,13.545,0,0,1,13.53,13.53Z" transform="translate(-7193.043 1285.648)" fill="#006bdc" stroke="#2a7de1" stroke-width="4"/>
      </g>
      <g id="Grupo_67" data-name="Grupo 67" transform="translate(363.709 41.227)">
        <path id="Trazado_65" data-name="Trazado 65" d="M5686.358-1576h33.556v-52.641a16.8,16.8,0,0,0-16.778-16.778,16.8,16.8,0,0,0-16.778,16.778Zm30.308-3.248h-27.06v-49.393a13.545,13.545,0,0,1,13.53-13.53,13.545,13.545,0,0,1,13.53,13.53Z" transform="translate(-5686.358 1645.417)" fill="#006bdc" stroke="#2a7de1" stroke-width="4"/>
      </g>
      <g id="Grupo_68" data-name="Grupo 68" transform="translate(298.456 41.227)">
        <path id="Trazado_66" data-name="Trazado 66" d="M5987.7-1576h33.556v-52.641a16.8,16.8,0,0,0-16.778-16.778,16.8,16.8,0,0,0-16.778,16.778Zm30.308-3.248h-27.06v-49.393a13.545,13.545,0,0,1,13.53-13.53,13.545,13.545,0,0,1,13.53,13.53Z" transform="translate(-5987.695 1645.417)" fill="#006bdc" stroke="#2a7de1" stroke-width="4"/>
      </g>
      <g id="Grupo_69" data-name="Grupo 69" transform="translate(233.203 41.227)">
        <path id="Trazado_67" data-name="Trazado 67" d="M6289.033-1576h33.557v-52.641a16.8,16.8,0,0,0-16.778-16.778,16.8,16.8,0,0,0-16.778,16.778Zm30.308-3.248h-27.06v-49.393a13.545,13.545,0,0,1,13.53-13.53,13.545,13.545,0,0,1,13.53,13.53Z" transform="translate(-6289.033 1645.417)" fill="#006bdc" stroke="#2a7de1" stroke-width="4"/>
      </g>
      <g id="Grupo_70" data-name="Grupo 70" transform="translate(0 107.938)">
        <path id="Trazado_68" data-name="Trazado 68" d="M5488.142-1334.1h437.291a1.624,1.624,0,0,0,1.625-1.624,1.624,1.624,0,0,0-1.625-1.624H5488.142a1.624,1.624,0,0,0-1.625,1.624A1.624,1.624,0,0,0,5488.142-1334.1Z" transform="translate(-5486.517 1337.348)" fill="#006bdc" stroke="#2a7de1" stroke-width="4"/>
      </g>
      <g id="Grupo_71" data-name="Grupo 71" transform="translate(394.017 263.733)">
        <path id="Trazado_69" data-name="Trazado 69" d="M5687.983-563.4a1.624,1.624,0,0,0,1.624-1.624v-51.239a1.624,1.624,0,0,0-1.624-1.624,1.624,1.624,0,0,0-1.624,1.624v51.239A1.624,1.624,0,0,0,5687.983-563.4Z" transform="translate(-5686.359 617.889)" fill="#006bdc" stroke="#2a7de1" stroke-width="4"/>
      </g>
      <g id="Grupo_72" data-name="Grupo 72" transform="translate(363.765 264.099)">
        <path id="Trazado_70" data-name="Trazado 70" d="M5827.688-561.713a1.624,1.624,0,0,0,1.624-1.624v-51.239a1.624,1.624,0,0,0-1.624-1.624,1.624,1.624,0,0,0-1.624,1.624v51.239A1.624,1.624,0,0,0,5827.688-561.713Z" transform="translate(-5826.063 616.2)" fill="#006bdc" stroke="#2a7de1" stroke-width="4"/>
      </g>
      <g id="Grupo_73" data-name="Grupo 73" transform="translate(328.764 264.099)">
        <path id="Trazado_71" data-name="Trazado 71" d="M5989.32-561.713a1.624,1.624,0,0,0,1.624-1.624v-51.239a1.624,1.624,0,0,0-1.624-1.624,1.624,1.624,0,0,0-1.624,1.624v51.239A1.624,1.624,0,0,0,5989.32-561.713Z" transform="translate(-5987.696 616.2)" fill="#006bdc" stroke="#2a7de1" stroke-width="4"/>
      </g>
      <g id="Grupo_74" data-name="Grupo 74" transform="translate(298.456 264.099)">
        <path id="Trazado_72" data-name="Trazado 72" d="M6129.282-561.713a1.624,1.624,0,0,0,1.624-1.624v-51.239a1.624,1.624,0,0,0-1.624-1.624,1.624,1.624,0,0,0-1.624,1.624v51.239A1.624,1.624,0,0,0,6129.282-561.713Z" transform="translate(-6127.658 616.2)" fill="#006bdc" stroke="#2a7de1" stroke-width="4"/>
      </g>
      <g id="Grupo_75" data-name="Grupo 75" transform="translate(263.511 264.099)">
        <path id="Trazado_73" data-name="Trazado 73" d="M6290.657-561.713a1.624,1.624,0,0,0,1.624-1.624v-51.239a1.624,1.624,0,0,0-1.624-1.624,1.624,1.624,0,0,0-1.625,1.624v51.239A1.624,1.624,0,0,0,6290.657-561.713Z" transform="translate(-6289.033 616.2)" fill="#006bdc" stroke="#2a7de1" stroke-width="4"/>
      </g>
      <g id="Grupo_76" data-name="Grupo 76" transform="translate(233.203 263.733)">
        <path id="Trazado_74" data-name="Trazado 74" d="M6430.619-563.4a1.624,1.624,0,0,0,1.624-1.624v-51.239a1.624,1.624,0,0,0-1.624-1.624,1.624,1.624,0,0,0-1.624,1.624v51.239A1.624,1.624,0,0,0,6430.619-563.4Z" transform="translate(-6428.995 617.889)" fill="#006bdc" stroke="#2a7de1" stroke-width="4"/>
      </g>
      <g id="Grupo_77" data-name="Grupo 77" transform="translate(167.95 263.733)">
        <path id="Trazado_75" data-name="Trazado 75" d="M6731.956-563.4a1.624,1.624,0,0,0,1.624-1.624v-51.239a1.624,1.624,0,0,0-1.624-1.624,1.624,1.624,0,0,0-1.625,1.624v51.239A1.624,1.624,0,0,0,6731.956-563.4Z" transform="translate(-6730.332 617.889)" fill="#006bdc" stroke="#2a7de1" stroke-width="4"/>
      </g>
      <g id="Grupo_78" data-name="Grupo 78" transform="translate(102.697 263.733)">
        <path id="Trazado_76" data-name="Trazado 76" d="M7033.292-563.4a1.624,1.624,0,0,0,1.624-1.624v-51.239a1.624,1.624,0,0,0-1.624-1.624,1.624,1.624,0,0,0-1.624,1.624v51.239A1.624,1.624,0,0,0,7033.292-563.4Z" transform="translate(-7031.668 617.889)" fill="#006bdc" stroke="#2a7de1" stroke-width="4"/>
      </g>
      <g id="Grupo_79" data-name="Grupo 79" transform="translate(37.444 263.733)">
        <path id="Trazado_77" data-name="Trazado 77" d="M7334.629-563.4a1.624,1.624,0,0,0,1.624-1.624v-51.239a1.624,1.624,0,0,0-1.624-1.624,1.624,1.624,0,0,0-1.624,1.624v51.239A1.624,1.624,0,0,0,7334.629-563.4Z" transform="translate(-7333.005 617.889)" fill="#006bdc" stroke="#2a7de1" stroke-width="4"/>
      </g>
      <g id="Grupo_80" data-name="Grupo 80" transform="translate(67.752 263.733)">
        <path id="Trazado_78" data-name="Trazado 78" d="M7194.667-563.4a1.624,1.624,0,0,0,1.624-1.624v-51.239a1.624,1.624,0,0,0-1.624-1.624,1.624,1.624,0,0,0-1.625,1.624v51.239A1.624,1.624,0,0,0,7194.667-563.4Z" transform="translate(-7193.042 617.889)" fill="#006bdc" stroke="#2a7de1" stroke-width="4"/>
      </g>
      <g id="Grupo_81" data-name="Grupo 81" transform="translate(133.005 263.733)">
        <path id="Trazado_79" data-name="Trazado 79" d="M6893.33-563.4a1.624,1.624,0,0,0,1.624-1.624v-51.239a1.624,1.624,0,0,0-1.624-1.624,1.624,1.624,0,0,0-1.624,1.624v51.239A1.624,1.624,0,0,0,6893.33-563.4Z" transform="translate(-6891.706 617.889)" fill="#006bdc" stroke="#2a7de1" stroke-width="4"/>
      </g>
      <g id="Grupo_82" data-name="Grupo 82" transform="translate(198.258 263.733)">
        <path id="Trazado_80" data-name="Trazado 80" d="M6591.994-563.4a1.624,1.624,0,0,0,1.624-1.624v-51.239a1.624,1.624,0,0,0-1.624-1.624,1.624,1.624,0,0,0-1.624,1.624v51.239A1.624,1.624,0,0,0,6591.994-563.4Z" transform="translate(-6590.37 617.889)" fill="#006bdc" stroke="#2a7de1" stroke-width="4"/>
      </g>
      <g id="Grupo_83" data-name="Grupo 83" transform="translate(379.161 277.405)">
        <circle id="Elipse_3" data-name="Elipse 3" cx="2.254" cy="2.254" r="2.254" transform="translate(0 0)" fill="#006bdc" stroke="#2a7de1" stroke-width="4"/>
      </g>
      <g id="Grupo_84" data-name="Grupo 84" transform="translate(408.397 302.944)">
        <circle id="Elipse_4" data-name="Elipse 4" cx="2.254" cy="2.254" r="2.254" transform="translate(0 0)" fill="#006bdc" stroke="#2a7de1" stroke-width="4"/>
      </g>
      <g id="Grupo_85" data-name="Grupo 85" transform="translate(313.281 277.405)">
        <circle id="Elipse_5" data-name="Elipse 5" cx="2.254" cy="2.254" r="2.254" transform="translate(0 0)" fill="#006bdc" stroke="#2a7de1" stroke-width="4"/>
      </g>
      <g id="Grupo_86" data-name="Grupo 86" transform="translate(346.177 302.944)">
        <circle id="Elipse_6" data-name="Elipse 6" cx="2.254" cy="2.254" r="2.254" transform="translate(0 0)" fill="#006bdc" stroke="#2a7de1" stroke-width="4"/>
      </g>
      <g id="Grupo_87" data-name="Grupo 87" transform="translate(248.446 277.405)">
        <circle id="Elipse_7" data-name="Elipse 7" cx="2.254" cy="2.254" r="2.254" transform="translate(0 0)" fill="#006bdc" stroke="#2a7de1" stroke-width="4"/>
      </g>
      <g id="Grupo_88" data-name="Grupo 88" transform="translate(280.82 302.944)">
        <circle id="Elipse_8" data-name="Elipse 8" cx="2.254" cy="2.254" r="2.254" transform="translate(0 0)" fill="#006bdc" stroke="#2a7de1" stroke-width="4"/>
      </g>
      <g id="Grupo_89" data-name="Grupo 89" transform="translate(183.088 277.405)">
        <circle id="Elipse_9" data-name="Elipse 9" cx="2.254" cy="2.254" r="2.254" transform="translate(0 0)" fill="#006bdc" stroke="#2a7de1" stroke-width="4"/>
      </g>
      <g id="Grupo_90" data-name="Grupo 90" transform="translate(215.985 302.944)">
        <circle id="Elipse_10" data-name="Elipse 10" cx="2.254" cy="2.254" r="2.254" transform="translate(0 0)" fill="#006bdc" stroke="#2a7de1" stroke-width="4"/>
      </g>
      <g id="Grupo_91" data-name="Grupo 91" transform="translate(117.208 277.405)">
        <circle id="Elipse_11" data-name="Elipse 11" cx="2.254" cy="2.254" r="2.254" transform="translate(0 0)" fill="#006bdc" stroke="#2a7de1" stroke-width="4"/>
      </g>
      <g id="Grupo_92" data-name="Grupo 92" transform="translate(150.104 302.944)">
        <circle id="Elipse_12" data-name="Elipse 12" cx="2.254" cy="2.254" r="2.254" transform="translate(0 0)" fill="#006bdc" stroke="#2a7de1" stroke-width="4"/>
      </g>
      <g id="Grupo_93" data-name="Grupo 93" transform="translate(52.373 277.405)">
        <circle id="Elipse_13" data-name="Elipse 13" cx="2.254" cy="2.254" r="2.254" transform="translate(0 0)" fill="#006bdc" stroke="#2a7de1" stroke-width="4"/>
      </g>
      <g id="Grupo_94" data-name="Grupo 94" transform="translate(84.747 302.944)">
        <circle id="Elipse_14" data-name="Elipse 14" cx="2.254" cy="2.254" r="2.254" transform="translate(0 0)" fill="#006bdc" stroke="#2a7de1" stroke-width="4"/>
      </g>
      <g id="Grupo_95" data-name="Grupo 95" transform="translate(23.572 302.944)">
        <circle id="Elipse_15" data-name="Elipse 15" cx="2.254" cy="2.254" r="2.254" transform="translate(0 0)" fill="#006bdc" stroke="#2a7de1" stroke-width="4"/>
      </g>
      <g id="Grupo_99" data-name="Grupo 99" transform="translate(53.902 30.436)">
        <g id="Grupo_98" data-name="Grupo 98" transform="translate(0)" clip-path="url(#clip-path)">
          <g id="Grupo_96" data-name="Grupo 96" transform="translate(114.048 10.791)">
            <path id="Trazado_81" data-name="Trazado 81" d="M6590.371-1576h33.556v-52.641a16.8,16.8,0,0,0-16.778-16.778,16.8,16.8,0,0,0-16.778,16.778Zm30.308-3.248h-27.06v-49.393a13.545,13.545,0,0,1,13.53-13.53,13.545,13.545,0,0,1,13.53,13.53Z" transform="translate(-6590.371 1645.417)" fill="#006bdc" stroke="#2a7de1" stroke-width="4"/>
          </g>
          <g id="Grupo_97" data-name="Grupo 97" transform="translate(48.794 88.697)">
            <path id="Trazado_82" data-name="Trazado 82" d="M6891.706-1216.229h33.557v-52.641a16.8,16.8,0,0,0-16.778-16.778,16.8,16.8,0,0,0-16.778,16.778Zm30.309-3.248h-27.06v-49.393a13.545,13.545,0,0,1,13.53-13.53,13.545,13.545,0,0,1,13.53,13.53Z" transform="translate(-6891.706 1285.648)" fill="#006bdc" stroke="#2a7de1" stroke-width="4"/>
          </g>
        </g>
      </g>
      <g id="Grupo_100" data-name="Grupo 100" transform="translate(86.735 28.812)">
        <path id="Trazado_84" data-name="Trazado 84" d="M5488.14-1543.01a1.622,1.622,0,0,0,1.376-.76l97.877-155.732h251.3a1.624,1.624,0,0,0,1.625-1.624,1.624,1.624,0,0,0-1.625-1.624H5586.5a1.623,1.623,0,0,0-1.375.76L5486.767-1545.5a1.624,1.624,0,0,0,.511,2.239A1.616,1.616,0,0,0,5488.14-1543.01Z" transform="translate(-5486.517 1702.75)" fill="#006bdc" stroke="#2a7de1" stroke-width="4"/>
      </g>
      <g id="Grupo_101" data-name="Grupo 101" transform="translate(37.444 197.562)">
        <path id="Trazado_85" data-name="Trazado 85" d="M7193.043-854.046H7226.6v-52.641a16.8,16.8,0,0,0-16.778-16.778,16.8,16.8,0,0,0-16.778,16.778Zm30.308-3.248h-27.06v-49.393a13.545,13.545,0,0,1,13.53-13.53,13.545,13.545,0,0,1,13.53,13.53Z" transform="translate(-7193.043 923.465)" fill="#006bdc" stroke="#2a7de1" stroke-width="4"/>
      </g>
      <g id="Grupo_102" data-name="Grupo 102" transform="translate(182.058 8.753)">
        <path id="Trazado_86" data-name="Trazado 86" d="M5488.141-1792.135h255.233a1.624,1.624,0,0,0,1.625-1.624,1.624,1.624,0,0,0-1.625-1.624H5488.141a1.624,1.624,0,0,0-1.624,1.624A1.624,1.624,0,0,0,5488.141-1792.135Z" transform="translate(-5486.517 1795.383)" fill="#006bdc" stroke="#2a7de1" stroke-width="4"/>
      </g>
      <g id="Grupo_103" data-name="Grupo 103" transform="translate(0 316.963)">
        <path id="Trazado_87" data-name="Trazado 87" d="M5488.142-368.825h437.291a1.624,1.624,0,0,0,1.625-1.624,1.624,1.624,0,0,0-1.625-1.624H5488.142a1.624,1.624,0,0,0-1.625,1.624A1.624,1.624,0,0,0,5488.142-368.825Z" transform="translate(-5486.517 372.073)" fill="#006bdc" stroke="#2a7de1" stroke-width="4"/>
      </g>
      <g id="Grupo_106" data-name="Grupo 106" transform="translate(74.133 89.128)">
        <g id="Grupo_104" data-name="Grupo 104" transform="translate(18.598 0)">
          <path id="Trazado_88" data-name="Trazado 88" d="M7074.191-1405.068v-17.142a1.956,1.956,0,0,1,2-2,1.956,1.956,0,0,1,2,2v17.142Z" transform="translate(-7074.191 1424.213)" fill="#006bdc" stroke="#2a7de1" stroke-width="4"/>
        </g>
        <g id="Grupo_105" data-name="Grupo 105" transform="translate(0 0)">
          <path id="Trazado_89" data-name="Trazado 89" d="M7160.077-1405.068v-17.142a1.956,1.956,0,0,1,2-2,1.956,1.956,0,0,1,2,2v17.142Z" transform="translate(-7160.077 1424.213)" fill="#006bdc" stroke="#2a7de1" stroke-width="4"/>
        </g>
      </g>
      <g id="Grupo_109" data-name="Grupo 109" transform="translate(113.894 89.128)">
        <g id="Grupo_107" data-name="Grupo 107" transform="translate(18.598 0)">
          <path id="Trazado_90" data-name="Trazado 90" d="M6890.578-1405.068v-17.142a1.956,1.956,0,0,1,2-2,1.956,1.956,0,0,1,2,2v17.142Z" transform="translate(-6890.578 1424.213)" fill="#006bdc" stroke="#2a7de1" stroke-width="4"/>
        </g>
        <g id="Grupo_108" data-name="Grupo 108" transform="translate(0 0)">
          <path id="Trazado_91" data-name="Trazado 91" d="M6976.464-1405.068v-17.142a1.956,1.956,0,0,1,2-2,1.956,1.956,0,0,1,2,2v17.142Z" transform="translate(-6976.464 1424.213)" fill="#006bdc" stroke="#2a7de1" stroke-width="4"/>
        </g>
      </g>
      <g id="Grupo_112" data-name="Grupo 112" transform="translate(34.659 89.128)">
        <g id="Grupo_110" data-name="Grupo 110" transform="translate(0 0)">
          <path id="Trazado_92" data-name="Trazado 92" d="M7342.369-1405.068v-17.142a1.956,1.956,0,0,1,2-2,1.956,1.956,0,0,1,2,2v17.142Z" transform="translate(-7342.369 1424.213)" fill="#006bdc" stroke="#2a7de1" stroke-width="4"/>
        </g>
        <g id="Grupo_111" data-name="Grupo 111" transform="translate(18.599 0)">
          <path id="Trazado_93" data-name="Trazado 93" d="M7256.485-1405.068v-17.142a1.956,1.956,0,0,1,2-2,1.955,1.955,0,0,1,2,2v17.142Z" transform="translate(-7256.485 1424.213)" fill="#006bdc" stroke="#2a7de1" stroke-width="4"/>
        </g>
      </g>
      <g id="Grupo_113" data-name="Grupo 113" transform="translate(13.123 87.504)">
        <path id="Trazado_94" data-name="Trazado 94" d="M6966.457-1428.362a1.624,1.624,0,0,0,1.624-1.623,1.624,1.624,0,0,0-1.623-1.625l-132.806-.1h0a1.624,1.624,0,0,0-1.624,1.623,1.624,1.624,0,0,0,1.623,1.625l132.806.1Z" transform="translate(-6832.027 1431.713)" fill="#006bdc" stroke="#2a7de1" stroke-width="4"/>
      </g>
      <g id="Grupo_114" data-name="Grupo 114" transform="translate(1.53 76.626)">
        <path id="Trazado_95" data-name="Trazado 95" d="M6796.858-1478.7h152.366a1.624,1.624,0,0,0,1.624-1.624,1.624,1.624,0,0,0-1.624-1.624H6796.858a1.624,1.624,0,0,0-1.624,1.624A1.624,1.624,0,0,0,6796.858-1478.7Z" transform="translate(-6795.234 1481.946)" fill="#006bdc" stroke="#2a7de1" stroke-width="4"/>
      </g>
    </g>
    <g id="Grupo_116" data-name="Grupo 116" transform="translate(-6980.923 3467.18)">
      <path id="Trazado_96" data-name="Trazado 96" d="M8103.088-1830.735a25.379,25.379,0,0,0-9.1,1.673l-3.217,1.232.138-3.443c.015-.336.027-.674.027-1.012a24.048,24.048,0,0,0-23.818-24.219,24.009,24.009,0,0,0-23.6,20.978l-.332,2.521-2.468-.615a14.058,14.058,0,0,0-3.4-.418,14.321,14.321,0,0,0-12.5,7.489l-.827,1.5-1.673-.388a23.112,23.112,0,0,0-5.186-.591c-11.923,0-21.621,9.073-21.621,20.225s9.7,20.226,21.621,20.226c.688,0,1.369-.034,2.04-.094l.336-.03.332.069a2.6,2.6,0,0,0,.539.055h85.876a2.627,2.627,0,0,0,1.181-.28l.274-.136.3-.06c11.1-2.164,19.163-11.461,19.163-22.107C8127.18-1820.606,8116.372-1830.735,8103.088-1830.735Z" transform="translate(0 0)" fill="#141f35" stroke="#2a7de1" stroke-linecap="round" stroke-linejoin="round" stroke-width="6"/>
      <path id="Trazado_97" data-name="Trazado 97" d="M8467.35-1567.15h-72.639c-10.711-1.04-18.609-11.216-17.642-22.727.908-10.8,9.335-19.059,19.421-19.045a18.014,18.014,0,0,1,6.917,1.416c5.13-15.867,21.259-24.261,36.023-18.747a29.515,29.515,0,0,1,17.669,19.469c9.668-5.062,21.325-.742,26.035,9.649s.691,22.918-8.978,27.98a18.457,18.457,0,0,1-6.676,2.019Z" transform="translate(-314.962 -188.708)" fill="#141f35" stroke="#2a7de1" stroke-linecap="round" stroke-linejoin="round" stroke-width="6"/>
    </g>
    <g id="Grupo_212" data-name="Grupo 212" transform="translate(-2929.07 2643.765)">
      <g id="Grupo_206" data-name="Grupo 206">
        <path id="Trazado_168" data-name="Trazado 168" d="M4036.655-687.342c.033.462.075.918.133,1.366l.007.061c.062.469.139.926.225,1.38.021.114.041.229.065.34.084.418.174.83.275,1.234.009.034.015.068.023.1q.166.648.36,1.273c.03.106.065.21.1.314.118.372.243.741.374,1.1.017.041.028.085.045.127.146.4.3.779.457,1.158.04.094.08.185.119.279.142.332.287.657.438.975.021.046.041.093.063.139.17.355.344.7.519,1.034.044.083.085.164.129.244.155.29.311.575.468.85.026.046.054.094.079.14q.271.466.542.9l.133.21c.155.245.309.484.462.714.031.045.063.095.094.14.177.263.35.513.524.756.043.061.089.121.133.181.142.2.28.385.418.565.034.047.071.1.106.141.159.209.315.407.465.6.044.053.086.1.128.155.117.144.231.283.34.413.025.03.051.06.074.089.015-.016.027-.034.04-.049.129-.151.26-.312.4-.483.033-.041.067-.08.1-.123.16-.2.323-.407.493-.63.016-.02.03-.042.046-.061.156-.206.316-.424.479-.649l.106-.147c.18-.254.363-.516.549-.793.012-.016.023-.035.033-.051.175-.26.348-.531.523-.811.036-.055.071-.11.107-.167.19-.3.378-.617.566-.943l.02-.037c.18-.311.355-.632.53-.959.035-.067.068-.131.1-.2.183-.351.364-.708.54-1.081,0-.006.006-.012.009-.02.17-.356.335-.728.495-1.1.032-.074.064-.147.094-.221q.492-1.168.9-2.447c.026-.083.054-.163.076-.247a26.59,26.59,0,0,0,.675-2.665c.019-.091.036-.183.053-.274a25.576,25.576,0,0,0,.374-2.861c.007-.1.015-.2.021-.3.029-.495.05-.995.05-1.5s-.021-1.018-.05-1.518c-.008-.122-.021-.244-.029-.365-.028-.394-.067-.783-.114-1.169-.015-.113-.026-.226-.042-.338-.065-.465-.137-.923-.223-1.371,0-.014,0-.028-.008-.043a31.865,31.865,0,0,0-6.911-14.013,31.839,31.839,0,0,0-6.9,13.994c-.01.046-.017.091-.024.138q-.119.625-.206,1.267c-.019.136-.035.27-.051.406-.044.357-.078.718-.108,1.085-.011.144-.022.289-.031.433-.031.492-.05.989-.05,1.494s.02.992.048,1.478C4036.635-687.587,4036.645-687.464,4036.655-687.342Z" fill="#41cd9d"/>
      </g>
      <g id="Grupo_207" data-name="Grupo 207">
        <path id="Trazado_169" data-name="Trazado 169" d="M4053.63-700.177a31.957,31.957,0,0,1,1.53,5.407c.008.042.017.086.024.13.069.378.134.762.19,1.15.013.083.025.165.038.247.046.338.084.682.12,1.028.011.114.025.228.036.343.026.3.046.6.065.912.008.149.022.3.029.447.01.241.011.489.017.735,0,.2.014.394.014.59,0,.072-.006.14-.006.212,0,.413-.014.823-.033,1.228-.008.186-.022.369-.035.553-.02.294-.042.589-.071.879-.019.2-.039.39-.06.584-.035.28-.071.559-.111.837-.026.182-.052.365-.081.545-.054.322-.112.639-.175.953-.023.127-.046.255-.071.379-.089.423-.187.837-.29,1.248-.041.159-.085.316-.127.473-.07.264-.144.526-.22.784-.051.173-.1.344-.158.514-.076.242-.156.479-.235.716-.056.165-.112.328-.168.49-.092.257-.188.508-.284.756-.052.132-.1.265-.151.394-.145.36-.293.717-.446,1.063-.056.127-.112.247-.169.371-.106.233-.212.465-.321.692-.069.145-.139.284-.209.425-.1.2-.2.4-.3.6-.07.136-.144.273-.215.408-.108.2-.218.4-.33.6-.066.114-.129.233-.194.344-.169.295-.339.586-.511.866-.047.076-.1.151-.142.227q-.2.318-.393.623c-.07.1-.139.209-.207.313-.112.168-.219.331-.33.492-.07.1-.138.2-.209.3-.112.161-.223.316-.333.469-.04.056-.084.119-.127.177,5.22-.731,9.09-2.682,11.542-5.831,4.645-5.966,2.964-14.62,2.336-17.13-1.588-6.385.246-12.435,1.893-16.136C4056.343-707.46,4054.123-701.91,4053.63-700.177Z" fill="#41cd9d"/>
      </g>
      <g id="Grupo_208" data-name="Grupo 208">
        <path id="Trazado_170" data-name="Trazado 170" d="M4033.9-679.234c-.092-.266-.182-.538-.267-.811-.046-.144-.09-.287-.134-.434-.087-.3-.172-.6-.252-.9-.033-.121-.067-.239-.1-.36-.108-.427-.209-.859-.3-1.3-.016-.071-.026-.145-.041-.217-.074-.37-.144-.744-.2-1.123-.025-.15-.046-.3-.069-.456-.046-.309-.087-.623-.124-.94-.02-.166-.036-.334-.053-.5q-.048-.492-.079-.989c-.011-.152-.023-.3-.029-.455-.024-.482-.039-.971-.039-1.467,0-.456.01-.907.033-1.352,0-.078.009-.157.014-.235.021-.378.045-.756.08-1.124.006-.074.016-.145.022-.218.039-.39.084-.776.137-1.156.007-.052.017-.1.022-.155q.092-.635.206-1.252a.36.36,0,0,0,.01-.049,32.153,32.153,0,0,1,1.539-5.449c-.5-1.768-2.713-7.292-11.122-8.585,1.644,3.7,3.484,9.753,1.891,16.138-.625,2.51-2.306,11.164,2.339,17.13,2.452,3.149,6.322,5.1,11.541,5.831-.031-.042-.063-.089-.094-.131-.127-.177-.256-.356-.385-.544-.057-.081-.113-.162-.169-.244-.125-.184-.252-.373-.379-.565l-.163-.247q-.24-.372-.481-.762l-.057-.09q-.268-.441-.535-.907c-.048-.082-.095-.169-.142-.253-.13-.229-.257-.463-.384-.7-.061-.111-.119-.224-.178-.34-.118-.224-.233-.454-.35-.687-.056-.116-.113-.231-.171-.35-.129-.269-.256-.544-.381-.822-.035-.083-.075-.164-.112-.248-.158-.363-.315-.731-.466-1.108-.035-.092-.068-.185-.1-.275-.112-.291-.223-.583-.331-.884Q4033.973-679.026,4033.9-679.234Z" fill="#41cd9d"/>
      </g>
      <g id="Grupo_209" data-name="Grupo 209">
        <path id="Trazado_171" data-name="Trazado 171" d="M4043.952-664.967c-.745,0-1.468-.019-2.184-.049v42.138h4.37v-42.138C4045.422-664.986,4044.7-664.967,4043.952-664.967Z" fill="#41cd9d"/>
      </g>
      <g id="Grupo_210" data-name="Grupo 210">
        <path id="Trazado_172" data-name="Trazado 172" d="M4052.481-648.749c11.762,0,19.033-7.459,22.352-11.962-15.14,1.048-23.452,7.81-26.969,11.59A29.873,29.873,0,0,0,4052.481-648.749Z" fill="#41cd9d"/>
      </g>
      <g id="Grupo_211" data-name="Grupo 211">
        <path id="Trazado_173" data-name="Trazado 173" d="M4035.425-648.749a29.8,29.8,0,0,0,4.647-.377c-3.482-3.791-11.734-10.549-27-11.589C4016.387-656.213,4023.659-648.749,4035.425-648.749Z" fill="#41cd9d"/>
      </g>
    </g>
    <g id="Grupo_213" data-name="Grupo 213" transform="translate(-2844.07 2664.552)">
      <g id="Grupo_206-2" data-name="Grupo 206" transform="translate(4030.892 -708.191)">
        <path id="Trazado_168-2" data-name="Trazado 168" d="M4036.637-692.344c.025.35.057.7.1,1.035l.005.046c.047.355.105.7.171,1.046.016.086.031.174.049.258.064.317.132.629.208.935.007.026.011.052.017.076q.126.491.273.965c.023.08.049.159.073.238.089.282.184.562.283.834.013.031.021.064.034.1.111.3.226.59.346.878.03.071.061.14.09.211.108.252.218.5.332.739.016.035.031.07.048.105.129.269.261.529.394.784.033.063.064.124.1.185.117.22.236.436.355.644.02.035.041.071.06.106q.205.354.411.684l.1.159c.118.186.234.367.35.541l.071.106c.134.2.265.389.4.573.033.046.068.092.1.137.108.149.212.292.317.428.026.036.054.073.08.107.121.158.239.308.353.452l.1.117c.089.109.175.215.258.313.019.023.039.045.056.067.011-.012.021-.026.031-.037.1-.114.2-.236.3-.366.025-.031.051-.061.074-.093.121-.151.245-.308.374-.478.012-.015.023-.032.035-.046.118-.156.24-.321.363-.492l.081-.111c.136-.193.275-.391.416-.6.009-.012.017-.027.025-.039.133-.2.264-.4.4-.615.027-.042.054-.083.081-.127.144-.231.287-.468.429-.715l.015-.028c.136-.236.269-.479.4-.727.026-.051.052-.1.08-.15.139-.266.276-.537.409-.819,0,0,0-.009.007-.015.129-.27.254-.552.375-.836.024-.056.049-.111.071-.168q.373-.886.681-1.855c.02-.063.041-.124.058-.187a20.083,20.083,0,0,0,.512-2.02c.014-.069.027-.139.04-.208a19.372,19.372,0,0,0,.284-2.169c.005-.077.011-.152.016-.23.022-.375.038-.754.038-1.139s-.016-.772-.038-1.151c-.006-.092-.016-.185-.022-.277-.021-.3-.051-.594-.086-.886-.011-.086-.02-.171-.032-.256-.049-.352-.1-.7-.169-1.039,0-.011,0-.021-.006-.033a24.152,24.152,0,0,0-5.239-10.621,24.135,24.135,0,0,0-5.23,10.607c-.008.035-.013.069-.018.1q-.09.474-.156.96c-.014.1-.026.2-.039.308-.033.271-.059.544-.082.823-.008.109-.017.219-.023.328-.023.373-.038.75-.038,1.132s.015.752.036,1.12C4036.622-692.529,4036.63-692.436,4036.637-692.344Z" transform="translate(-4036.582 708.008)" fill="#41cd9d"/>
      </g>
      <g id="Grupo_207-2" data-name="Grupo 207" transform="translate(4040.287 -708.764)">
        <path id="Trazado_169-2" data-name="Trazado 169" d="M4052.5-702.255a24.227,24.227,0,0,1,1.16,4.1c.006.032.013.065.018.1.052.286.1.578.144.872.01.063.019.125.029.187.035.256.063.517.091.779.008.086.019.173.027.26.02.227.035.459.049.691.006.113.017.226.022.339.008.183.008.371.013.557,0,.149.011.3.011.447,0,.055,0,.106,0,.161,0,.313-.011.624-.025.931-.006.141-.017.28-.027.419-.015.223-.032.446-.054.666-.014.148-.029.3-.045.443-.027.212-.054.424-.084.634-.02.138-.04.277-.062.413-.041.244-.085.484-.133.722-.018.1-.035.193-.054.287-.067.321-.142.634-.22.946-.031.12-.064.24-.1.359-.053.2-.109.4-.167.594-.039.131-.08.261-.12.39-.058.183-.118.363-.178.543q-.064.188-.127.371c-.07.195-.142.385-.215.573-.04.1-.076.2-.115.3-.11.273-.222.543-.338.806-.042.1-.085.187-.128.281-.08.177-.161.352-.243.525-.052.11-.105.215-.158.322-.076.154-.152.307-.23.457-.053.1-.109.207-.163.309-.082.154-.166.3-.25.456-.05.086-.1.177-.147.261-.128.224-.257.444-.388.656-.036.058-.073.114-.107.172q-.15.241-.3.472c-.053.08-.105.158-.157.237-.085.127-.166.251-.25.373-.053.077-.1.154-.158.229-.085.122-.169.24-.252.356-.03.042-.064.09-.1.134,3.957-.554,6.89-2.033,8.749-4.42,3.521-4.522,2.247-11.082,1.771-12.984a19.216,19.216,0,0,1,1.435-12.231C4054.56-707.776,4052.877-703.569,4052.5-702.255Z" transform="translate(-4048.977 708.764)" fill="#41cd9d"/>
      </g>
      <g id="Grupo_208-2" data-name="Grupo 208" transform="translate(4020.715 -708.765)">
        <path id="Trazado_170-2" data-name="Trazado 170" d="M4031.3-686.381c-.07-.2-.138-.408-.2-.615-.035-.109-.068-.218-.1-.329-.066-.225-.13-.455-.191-.686-.025-.092-.051-.181-.075-.273-.082-.324-.159-.651-.228-.985-.012-.054-.02-.11-.031-.164-.056-.28-.109-.564-.154-.851-.019-.114-.035-.23-.052-.346-.035-.234-.066-.472-.094-.713-.015-.126-.027-.253-.04-.379-.024-.249-.044-.5-.06-.75-.008-.115-.017-.23-.022-.345-.018-.365-.029-.736-.029-1.112q0-.518.025-1.025c0-.059.007-.119.011-.178.016-.287.034-.573.061-.852,0-.056.012-.11.017-.165.03-.3.064-.588.1-.876.005-.039.013-.079.017-.117.046-.321.1-.637.156-.949a.275.275,0,0,0,.007-.037,24.4,24.4,0,0,1,1.167-4.13c-.379-1.34-2.056-5.527-8.43-6.507a19.215,19.215,0,0,1,1.434,12.232c-.474,1.9-1.748,8.462,1.773,12.984,1.858,2.387,4.792,3.866,8.748,4.42l-.071-.1c-.1-.134-.194-.27-.292-.412-.043-.061-.086-.123-.128-.185-.095-.139-.191-.283-.287-.428l-.124-.187q-.182-.282-.365-.578l-.043-.068q-.2-.334-.406-.687c-.036-.062-.072-.128-.107-.192-.1-.174-.195-.351-.291-.531-.046-.084-.09-.17-.135-.258-.089-.17-.176-.344-.265-.521l-.129-.265c-.1-.2-.194-.412-.289-.623-.026-.063-.057-.124-.085-.188-.12-.275-.239-.554-.353-.84-.026-.07-.052-.14-.079-.208-.085-.221-.169-.442-.251-.67Q4031.355-686.223,4031.3-686.381Z" transform="translate(-4023.156 708.765)" fill="#41cd9d"/>
      </g>
      <g id="Grupo_209-2" data-name="Grupo 209" transform="translate(4034.823 -675.604)">
        <path id="Trazado_171-2" data-name="Trazado 171" d="M4043.423-664.979c-.564,0-1.113-.014-1.655-.037v31.94h3.312v-31.94C4044.538-664.993,4043.99-664.979,4043.423-664.979Z" transform="translate(-4041.768 665.016)" fill="#41cd9d"/>
      </g>
      <g id="Grupo_210-2" data-name="Grupo 210" transform="translate(4039.443 -672.341)">
        <path id="Trazado_172-2" data-name="Trazado 172" d="M4051.363-651.644c8.916,0,14.427-5.654,16.942-9.067-11.476.794-17.776,5.92-20.442,8.785A22.642,22.642,0,0,0,4051.363-651.644Z" transform="translate(-4047.864 660.711)" fill="#41cd9d"/>
      </g>
      <g id="Grupo_211-2" data-name="Grupo 211" transform="translate(4013.07 -672.344)">
        <path id="Trazado_173-2" data-name="Trazado 173" d="M4030.014-651.645a22.59,22.59,0,0,0,3.522-.286c-2.639-2.873-8.894-8-20.467-8.784C4015.584-657.3,4021.1-651.645,4030.014-651.645Z" transform="translate(-4013.07 660.715)" fill="#41cd9d"/>
      </g>
    </g>
  </g>
</svg>
