<svg id="Grupo_290" data-name="Grupo 290" xmlns="http://www.w3.org/2000/svg" width="56.719" height="56.719" viewBox="0 0 56.719 56.719">
  <path id="Trazado_202" data-name="Trazado 202" d="M8836.082-478.538c-.236.039-.473.074-.711.106C8835.609-478.464,8835.846-478.5,8836.082-478.538Z" transform="translate(-8803.15 506.844)" fill="#3bd4ae"/>
  <path id="Trazado_203" data-name="Trazado 203" d="M8844.194-478.325c-.113.021-.227.04-.339.059C8843.968-478.285,8844.081-478.3,8844.194-478.325Z" transform="translate(-8810.694 506.655)" fill="#3bd4ae"/>
  <path id="Trazado_204" data-name="Trazado 204" d="M8822.957-478.428q-.413.047-.834.082Q8822.543-478.381,8822.957-478.428Z" transform="translate(-8791.37 506.746)" fill="#3bd4ae"/>
  <path id="Trazado_205" data-name="Trazado 205" d="M8831.359-478.282c-.133.018-.266.034-.4.05C8831.094-478.248,8831.227-478.264,8831.359-478.282Z" transform="translate(-8799.227 506.616)" fill="#3bd4ae"/>
  <path id="Trazado_206" data-name="Trazado 206" d="M8851.479-478.34l-.3.063Z" transform="translate(-8817.207 506.668)" fill="#3bd4ae"/>
  <path id="Trazado_207" data-name="Trazado 207" d="M8869.24-478.36l-.241.067Z" transform="translate(-8833.053 506.686)" fill="#3bd4ae"/>
  <path id="Trazado_208" data-name="Trazado 208" d="M8863.837-478.366l-.263.068Z" transform="translate(-8828.229 506.691)" fill="#3bd4ae"/>
  <path id="Trazado_209" data-name="Trazado 209" d="M8856.861-478.34l-.279.063Z" transform="translate(-8822.012 506.668)" fill="#3bd4ae"/>
  <path id="Trazado_210" data-name="Trazado 210" d="M8818.444-478.209q-.224.019-.448.034Q8818.22-478.19,8818.444-478.209Z" transform="translate(-8787.7 506.552)" fill="#3bd4ae"/>
  <path id="Trazado_211" data-name="Trazado 211" d="M8601.233-705.7a28.363,28.363,0,0,0-28.359-28.359,28.362,28.362,0,0,0-28.359,28.359,28.362,28.362,0,0,0,28.359,28.359c.166,0,.332,0,.5-.007v-22.077h-6.093v-7.1h6.093v-5.225c0-6.06,3.7-9.358,9.105-9.358a50.178,50.178,0,0,1,5.462.279v6.333h-3.728c-2.94,0-3.511,1.4-3.511,3.448v4.522h7.032l-.916,7.1H8580.7v20.987A28.375,28.375,0,0,0,8601.233-705.7Z" transform="translate(-8544.515 734.057)" fill="#3bd4ae"/>
  <path id="Trazado_212" data-name="Trazado 212" d="M8810.295-478.256c-.295.019-.592.034-.889.044C8809.7-478.222,8810-478.237,8810.295-478.256Z" transform="translate(-8780.062 506.593)" fill="#3bd4ae"/>
  <path id="Trazado_213" data-name="Trazado 213" d="M8805.489-478.11c-.156.005-.313.009-.471.012C8805.176-478.1,8805.333-478.1,8805.489-478.11Z" transform="translate(-8776.16 506.463)" fill="#3bd4ae"/>
</svg>
