<svg xmlns="http://www.w3.org/2000/svg" width="158.866" height="170.002" viewBox="0 0 158.866 170.002">
  <g id="Grupo_20" data-name="Grupo 20" transform="translate(-4293.017 851.794)">
    <g id="Grupo_19" data-name="Grupo 19" transform="translate(4296.585 -850.292)">
      <g id="Grupo_18" data-name="Grupo 18">
        <g id="Grupo_11" data-name="Grupo 11" transform="translate(17.584 18.515)">
          <g id="Grupo_9" data-name="Grupo 9">
            <g id="Grupo_8" data-name="Grupo 8">
              <path id="Trazado_11" data-name="Trazado 11" d="M4348.979-724.833s-2.73-7.706-2.724-10.391c.022-7.607,3.512-12.441,6.332-16.55,2.022-2.946,3.774-5.5,3.842-8.122l-3.774-14.8-11.045,17.987h-15.418a7.414,7.414,0,0,1-5.089,2.035,7.416,7.416,0,0,1-7.407-7.407,7.365,7.365,0,0,1,3.3-6.163l-.313-5.56h-2.6l-3.761-6.674h6.164l-.8-50.079,5.412-4.835,5.412,4.835-.8,50.079h6.164l-3.761,6.674h-2.6l-.312,5.561a7.413,7.413,0,0,1,.985.789h9.406l13.354-21.743c-.328-.471-.619-.9-.882-1.321a2.131,2.131,0,0,1-.293-.738,7.287,7.287,0,0,1,1.367-5.635,7.437,7.437,0,0,1,6-2.456h.019a2.109,2.109,0,0,1,1.624.758h22.92a7.066,7.066,0,0,1,5.75,2.6l8.736-.4,11.735-14.06a5.193,5.193,0,0,1,1.041-.94,7.4,7.4,0,0,1,5.359-4.077,7.214,7.214,0,0,1,1.3-.118,7.413,7.413,0,0,1,6.741,4.316,7.446,7.446,0,0,1,.05,6.073,7.415,7.415,0,0,1-3.653,3.735v23.206H4429.2a3.4,3.4,0,0,1,3.41,2.89,3.339,3.339,0,0,1-.918,2.773l5.114,10.515h1.9v1.3c0,1.755-1.19,3.335-3.351,4.449a15.566,15.566,0,0,1-6.982,1.508,15.56,15.56,0,0,1-6.98-1.508c-2.162-1.114-3.352-2.694-3.352-4.449v-1.3h2.472l4.623-9.5h-22.43l4.623,9.5h1.9v1.3c0,1.755-1.189,3.335-3.35,4.449a15.567,15.567,0,0,1-6.981,1.508,15.569,15.569,0,0,1-6.982-1.508c-2.16-1.114-3.351-2.694-3.351-4.449v-1.3h2.471L4396.4-773.1a3.3,3.3,0,0,1-.516-2.3,3.409,3.409,0,0,1,3.409-2.866h12.432v-22.365l-12.309,14.746-13.563.622-1.717,6.732a3.534,3.534,0,0,1,1.534,2.864,26.3,26.3,0,0,1-1.7,6.142,2.1,2.1,0,0,1-.242.575,2.346,2.346,0,0,1-2.123,1.085c-.061,0-.121,0-.185,0l-2.031,7.97c.067,2.625,1.818,5.176,3.842,8.121,2.82,4.109,6.331,9.223,6.331,16.551a21.62,21.62,0,0,1-.26,4.174m43.708-31.036-4.345-8.934-4.346,8.934Zm-29.476,0-4.347-8.934-4.345,8.934Z" transform="translate(-4310.326 835.397)" fill="none" stroke="#fff" stroke-linecap="round" stroke-linejoin="round" stroke-width="3"/>
            </g>
          </g>
          <g id="Grupo_10" data-name="Grupo 10" transform="translate(45.999 76.487)">
            <line id="Línea_1" data-name="Línea 1" x2="23.163" stroke-width="3" stroke="#fff" stroke-linecap="round" stroke-linejoin="round" fill="none"/>
          </g>
        </g>
        <g id="Grupo_12" data-name="Grupo 12" transform="translate(59.088 24.402)">
          <path id="Trazado_12" data-name="Trazado 12" d="M4359.839-803.33a13.6,13.6,0,0,1-6.747-1.792,9.48,9.48,0,0,1-3.337.576h0a11.487,11.487,0,0,1-3.627-.585l-1.96-.721,1.511-1.443c.849-.809,1.2-3.135.955-6.234a14.293,14.293,0,0,1-.295-1.4,4.65,4.65,0,0,1-2.62-4.175,4.665,4.665,0,0,1,4.256-4.643,13.576,13.576,0,0,1,11.867-6.91,13.579,13.579,0,0,1,7.319,2.131,13.719,13.719,0,0,1,4.634,4.937,4.634,4.634,0,0,1,3.455,4.485,4.636,4.636,0,0,1-1.849,3.7,13.861,13.861,0,0,1-.31,1.708c-.275,3.19.075,5.581.941,6.409l1.511,1.442-1.959.722a11.529,11.529,0,0,1-3.629.585,9.493,9.493,0,0,1-3.356-.583A13.605,13.605,0,0,1,4359.839-803.33Z" transform="translate(-4343.717 830.661)" fill="none" stroke="#fff" stroke-linecap="round" stroke-linejoin="round" stroke-width="3"/>
        </g>
        <g id="Grupo_13" data-name="Grupo 13">
          <path id="Trazado_13" data-name="Trazado 13" d="M4328.761-833.54a1.027,1.027,0,0,0,.734-.3l7.585-7.585a1.038,1.038,0,0,0,0-1.454,1.063,1.063,0,0,0-1.454,0l-7.586,7.586a1.037,1.037,0,0,0,.025,1.466A1.037,1.037,0,0,0,4328.761-833.54Z" transform="translate(-4288.509 852.023)" fill="none" stroke="#fff" stroke-linecap="round" stroke-linejoin="round" stroke-width="3"/>
          <path id="Trazado_14" data-name="Trazado 14" d="M4310.208-833.112a1.037,1.037,0,0,0,1.088-.983,1.033,1.033,0,0,0-.3-.787l-8.04-8.04a1.049,1.049,0,0,0-1.454,0,1.036,1.036,0,0,0,0,1.453l8.04,8.041A1.026,1.026,0,0,0,4310.208-833.112Z" transform="translate(-4294.961 852.012)" fill="none" stroke="#fff" stroke-linecap="round" stroke-linejoin="round" stroke-width="3"/>
          <path id="Trazado_15" data-name="Trazado 15" d="M4319.144-836.727a1.036,1.036,0,0,0,1.037-1.037v-11.377a1.036,1.036,0,0,0-.916-1.145,1.036,1.036,0,0,0-1.145.916,1.118,1.118,0,0,0,0,.229v11.377A1.037,1.037,0,0,0,4319.144-836.727Z" transform="translate(-4290.851 850.292)" fill="none" stroke="#fff" stroke-linecap="round" stroke-linejoin="round" stroke-width="3"/>
          <path id="Trazado_16" data-name="Trazado 16" d="M4306.393-829.854a1.036,1.036,0,0,0,1.009-1.063,1.032,1.032,0,0,0-.618-.922l-5.056-2.111a1.047,1.047,0,0,0-1.388.522l-.015.034a1.038,1.038,0,0,0,.6,1.338l.006,0,5.059,2.112A1.026,1.026,0,0,0,4306.393-829.854Z" transform="translate(-4295.19 854.241)" fill="none" stroke="#fff" stroke-linecap="round" stroke-linejoin="round" stroke-width="3"/>
          <path id="Trazado_17" data-name="Trazado 17" d="M4299.2-832.895a1.036,1.036,0,0,0,1.022-1.05,1.037,1.037,0,0,0-.618-.935l-2.086-.859a1.036,1.036,0,0,0-1.295.687,1.037,1.037,0,0,0,.486,1.208l2.073.873A1.049,1.049,0,0,0,4299.2-832.895Z" transform="translate(-4296.181 853.818)" fill="none" stroke="#fff" stroke-linecap="round" stroke-linejoin="round" stroke-width="3"/>
          <path id="Trazado_18" data-name="Trazado 18" d="M4324.564-836.807a1.025,1.025,0,0,0,.949-.633l2.111-5.057a1.037,1.037,0,0,0-.556-1.352,1.017,1.017,0,0,0-.393-.076,1.035,1.035,0,0,0-.947.631l-2.112,5.058a1.036,1.036,0,0,0,.557,1.352A1.008,1.008,0,0,0,4324.564-836.807Z" transform="translate(-4289.532 851.839)" fill="none" stroke="#fff" stroke-linecap="round" stroke-linejoin="round" stroke-width="3"/>
          <path id="Trazado_19" data-name="Trazado 19" d="M4327.351-843.976a1.026,1.026,0,0,0,.947-.633l.86-2.047a1.038,1.038,0,0,0-.543-1.354,1.05,1.05,0,0,0-1.354.557l-.859,2.047a1.036,1.036,0,0,0,.567,1.352A1.083,1.083,0,0,0,4327.351-843.976Z" transform="translate(-4288.854 850.829)" fill="none" stroke="#fff" stroke-linecap="round" stroke-linejoin="round" stroke-width="3"/>
          <path id="Trazado_20" data-name="Trazado 20" d="M4331.782-829.417a1.036,1.036,0,0,0,.392-.076l5.056-2.086a1.036,1.036,0,0,0,.694-1.292,1.037,1.037,0,0,0-1.292-.694,1.08,1.08,0,0,0-.185.076l-5.057,2.086a1.038,1.038,0,0,0-.53,1.367A1.038,1.038,0,0,0,4331.782-829.417Z" transform="translate(-4287.774 854.347)" fill="none" stroke="#fff" stroke-linecap="round" stroke-linejoin="round" stroke-width="3"/>
          <path id="Trazado_21" data-name="Trazado 21" d="M4338.376-832.363a1.035,1.035,0,0,0,.392-.076l2.061-.834a1.038,1.038,0,0,0,.409-1.408,1.037,1.037,0,0,0-1.181-.5l-2.01.885a1.037,1.037,0,0,0-.417,1.406A1.038,1.038,0,0,0,4338.376-832.363Z" transform="translate(-4286.138 853.956)" fill="none" stroke="#fff" stroke-linecap="round" stroke-linejoin="round" stroke-width="3"/>
          <path id="Trazado_22" data-name="Trazado 22" d="M4314.355-837.351a1.035,1.035,0,0,0,.555-1.352l-2.11-5.057a1.036,1.036,0,0,0-.948-.633,1.011,1.011,0,0,0-.392.076,1.038,1.038,0,0,0-.556,1.352l2.111,5.057a1.023,1.023,0,0,0,.949.633A1.009,1.009,0,0,0,4314.355-837.351Z" transform="translate(-4292.622 851.726)" fill="none" stroke="#fff" stroke-linecap="round" stroke-linejoin="round" stroke-width="3"/>
          <path id="Trazado_23" data-name="Trazado 23" d="M4311.336-844.519a1.024,1.024,0,0,0,.55-1.34l0-.012-.861-2.049a1.05,1.05,0,0,0-1.353-.557,1.038,1.038,0,0,0-.543,1.354l.859,2.047a1.024,1.024,0,0,0,1.334.564Z" transform="translate(-4293.055 850.715)" fill="none" stroke="#fff" stroke-linecap="round" stroke-linejoin="round" stroke-width="3"/>
        </g>
        <g id="Grupo_15" data-name="Grupo 15" transform="translate(17.584 18.515)">
          <g id="Grupo_14" data-name="Grupo 14">
            <path id="Trazado_24" data-name="Trazado 24" d="M4436.809-762.086l-5.114-10.515a3.339,3.339,0,0,0,.918-2.773,3.4,3.4,0,0,0-3.41-2.89h-12.434V-801.47a7.415,7.415,0,0,0,3.653-3.735,7.446,7.446,0,0,0-.05-6.073,7.413,7.413,0,0,0-6.741-4.316,7.214,7.214,0,0,0-1.3.118,7.4,7.4,0,0,0-5.359,4.077,5.193,5.193,0,0,0-1.041.94L4394.2-796.4l-8.736.4a7.067,7.067,0,0,0-5.75-2.6h-22.92a2.112,2.112,0,0,0-1.624-.757h-.019a7.437,7.437,0,0,0-6,2.456,7.287,7.287,0,0,0-1.367,5.635,2.131,2.131,0,0,0,.293.738c.263.416.554.85.882,1.321L4335.6-767.458h-9.406a7.413,7.413,0,0,0-.985-.789l.313-5.561h2.6l3.761-6.674h-6.164l.8-50.079L4321.1-835.4l-5.412,4.835.8,50.079h-6.164l3.761,6.674h2.6l.313,5.56a7.365,7.365,0,0,0-3.3,6.163,7.416,7.416,0,0,0,7.407,7.407,7.414,7.414,0,0,0,5.089-2.035h15.418l11.045-17.987,3.774,14.8c-.067,2.625-1.819,5.176-3.842,8.122a41.094,41.094,0,0,0-4.774,8.375H4388a41.093,41.093,0,0,0-4.773-8.377c-2.023-2.945-3.774-5.5-3.842-8.121l2.031-7.97c.063,0,.124,0,.185,0a2.346,2.346,0,0,0,2.123-1.085,2.1,2.1,0,0,0,.242-.575,26.3,26.3,0,0,0,1.7-6.142,3.534,3.534,0,0,0-1.534-2.864l1.717-6.732,13.563-.622,12.309-14.746v22.365h-12.432a3.409,3.409,0,0,0-3.409,2.866,3.3,3.3,0,0,0,.516,2.3l-5.356,11.013h-2.471v1.3c0,1.756,1.19,3.336,3.351,4.45a15.569,15.569,0,0,0,6.982,1.508,15.567,15.567,0,0,0,6.981-1.508c2.16-1.114,3.35-2.694,3.35-4.45v-1.3h-1.9l-4.623-9.5h22.43l-4.623,9.5h-2.472v1.3c0,1.756,1.189,3.336,3.352,4.45a15.56,15.56,0,0,0,6.98,1.508,15.566,15.566,0,0,0,6.982-1.508c2.16-1.114,3.351-2.694,3.351-4.45v-1.3Zm-33.276,0h-8.691l4.345-8.934Zm20.785,0,4.346-8.934,4.345,8.934Z" transform="translate(-4310.326 835.397)" fill="none" stroke="#fff" stroke-linecap="round" stroke-linejoin="round" stroke-width="3"/>
          </g>
        </g>
        <g id="Grupo_16" data-name="Grupo 16" transform="translate(56.4 57.016)">
          <line id="Línea_2" data-name="Línea 2" x2="35.342" y2="25.877" stroke-width="3" stroke="#fff" stroke-linecap="round" stroke-linejoin="round" fill="none"/>
        </g>
        <g id="Grupo_17" data-name="Grupo 17" transform="translate(59.088 35.656)">
          <line id="Línea_3" data-name="Línea 3" x2="31.522" stroke-width="3" stroke="#fff" stroke-linecap="round" stroke-linejoin="round" fill="none"/>
        </g>
      </g>
    </g>
    <path id="Trazado_25" data-name="Trazado 25" d="M4370.921-736.586a1.677,1.677,0,0,0-.265-.838,14.455,14.455,0,0,0-12.446-6.84,15.026,15.026,0,0,0-5.39.991l-1.9.73.08-2.04c.008-.2.016-.4.016-.6a14.239,14.239,0,0,0-14.1-14.34,14.216,14.216,0,0,0-13.973,12.422l-.2,1.493-1.461-.364a8.293,8.293,0,0,0-2.012-.247,8.482,8.482,0,0,0-7.4,4.434l-.49.89-.99-.229a13.639,13.639,0,0,0-3.07-.351c-7.06,0-12.8,5.372-12.8,11.975s5.743,11.977,12.8,11.977c.407,0,.81-.021,1.208-.056l.2-.018.2.041a1.524,1.524,0,0,0,.32.032H4355.1" transform="translate(0 22.06)" fill="none" stroke="#fff" stroke-linecap="round" stroke-linejoin="round" stroke-width="3"/>
    <path id="Trazado_26" data-name="Trazado 26" d="M4368.593-736.133c-.2,0-.2-.986-.2-.986a13.416,13.416,0,0,1,.034-1.724c.537-6.393,5.528-11.286,11.5-11.277a10.665,10.665,0,0,1,4.1.838c3.038-9.395,12.588-14.364,21.33-11.1a17.472,17.472,0,0,1,10.461,11.528c5.726-3,12.628-.439,15.416,5.713s.41,13.57-5.315,16.568a10.948,10.948,0,0,1-3.953,1.2l-.079-.009h-22.3" transform="translate(17.951 21.607)" fill="none" stroke="#fff" stroke-linecap="round" stroke-linejoin="round" stroke-width="3"/>
    <path id="Trazado_27" data-name="Trazado 27" d="M4367.885-709.836h38.778a10.281,10.281,0,0,0,10.275-10.266,10.281,10.281,0,0,0-10.275-10.266h-8.117c.012-.147.012-.29.012-.436A10.275,10.275,0,0,0,4388.3-741.07h-38.776a10.28,10.28,0,0,0-10.275,10.265,10.255,10.255,0,0,0,4.255,8.316,10.231,10.231,0,0,0,6.02,1.949h8.116c-.013.147-.013.291-.013.438A10.275,10.275,0,0,0,4367.885-709.836Z" transform="translate(10.871 26.544)" fill="none" stroke="#fff" stroke-linecap="round" stroke-linejoin="round" stroke-width="3"/>
  </g>
</svg>
