<svg id="Grupo_289" data-name="Grupo 289" xmlns="http://www.w3.org/2000/svg" width="56.718" height="56.719" viewBox="0 0 56.718 56.719">
  <path id="Trazado_199" data-name="Trazado 199" d="M9698.275-521.629a5.428,5.428,0,0,1-5.429,5.428,5.429,5.429,0,0,1-5.429-5.428,5.429,5.429,0,0,1,5.429-5.428A5.428,5.428,0,0,1,9698.275-521.629Z" transform="translate(-9664.486 549.988)" fill="#3bd4ae"/>
  <path id="Trazado_200" data-name="Trazado 200" d="M9641.948-594.823a5.042,5.042,0,0,0-1.218-1.873,5.042,5.042,0,0,0-1.873-1.218,9.01,9.01,0,0,0-3.023-.56c-1.717-.078-2.232-.1-6.58-.1s-4.863.016-6.58.095a9.02,9.02,0,0,0-3.024.561,5.039,5.039,0,0,0-1.872,1.218,5.053,5.053,0,0,0-1.219,1.873A9.016,9.016,0,0,0,9616-591.8c-.078,1.717-.095,2.232-.095,6.581s.017,4.863.095,6.581a9.014,9.014,0,0,0,.561,3.023,5.052,5.052,0,0,0,1.219,1.872,5.043,5.043,0,0,0,1.871,1.218,9.014,9.014,0,0,0,3.025.561c1.717.078,2.23.095,6.58.095s4.863-.016,6.58-.095a9,9,0,0,0,3.023-.561,5.394,5.394,0,0,0,3.091-3.091,9.007,9.007,0,0,0,.562-3.023c.078-1.718.094-2.232.094-6.581s-.016-4.863-.094-6.581A8.984,8.984,0,0,0,9641.948-594.823Zm-12.694,17.966a8.361,8.361,0,0,1-8.362-8.362,8.362,8.362,0,0,1,8.362-8.362,8.362,8.362,0,0,1,8.361,8.362A8.362,8.362,0,0,1,9629.254-576.857Zm8.692-15.1a1.954,1.954,0,0,1-1.954-1.954,1.954,1.954,0,0,1,1.954-1.954,1.954,1.954,0,0,1,1.954,1.954A1.954,1.954,0,0,1,9637.946-591.957Z" transform="translate(-9600.895 613.578)" fill="#3bd4ae"/>
  <path id="Trazado_201" data-name="Trazado 201" d="M9508.778-734.057a28.362,28.362,0,0,0-28.359,28.359,28.362,28.362,0,0,0,28.359,28.359,28.362,28.362,0,0,0,28.358-28.359A28.362,28.362,0,0,0,9508.778-734.057Zm16.187,35.073a11.981,11.981,0,0,1-.758,3.953,8.324,8.324,0,0,1-4.762,4.763,11.961,11.961,0,0,1-3.953.757c-1.736.079-2.291.1-6.714.1s-4.978-.019-6.714-.1a11.961,11.961,0,0,1-3.953-.757,7.994,7.994,0,0,1-2.885-1.878,7.97,7.97,0,0,1-1.877-2.884,11.928,11.928,0,0,1-.758-3.953c-.08-1.737-.1-2.292-.1-6.714s.018-4.977.1-6.714a11.908,11.908,0,0,1,.757-3.953,7.984,7.984,0,0,1,1.878-2.884,7.986,7.986,0,0,1,2.885-1.878,11.955,11.955,0,0,1,3.953-.757c1.736-.079,2.291-.1,6.714-.1s4.978.019,6.714.1a11.97,11.97,0,0,1,3.953.756,8,8,0,0,1,2.885,1.879,7.973,7.973,0,0,1,1.877,2.884,11.955,11.955,0,0,1,.758,3.953c.079,1.737.1,2.291.1,6.714S9525.044-700.72,9524.965-698.984Z" transform="translate(-9480.419 734.057)" fill="#3bd4ae"/>
</svg>
