<svg xmlns="http://www.w3.org/2000/svg" width="443.715" height="430.478" viewBox="0 0 443.715 430.478">
  <g id="Grupo_123" data-name="Grupo 123" transform="translate(-7114.873 2767.097)">
    <path id="Trazado_98" data-name="Trazado 98" d="M7285.615-2354.377h-78.86c-11.629-1.129-20.2-12.176-19.153-24.673.985-11.72,10.134-20.692,21.084-20.676a19.561,19.561,0,0,1,7.51,1.537c5.57-17.227,23.079-26.339,39.108-20.353a32.041,32.041,0,0,1,19.182,21.137c10.5-5.5,23.152-.806,28.266,10.475s.75,24.881-9.747,30.377a20.049,20.049,0,0,1-7.247,2.192Z" fill="#141f35" stroke="#2a7de1" stroke-linecap="round" stroke-linejoin="round" stroke-width="2.839"/>
    <path id="Trazado_99" data-name="Trazado 99" d="M7168.8-2390.919h71.1a18.851,18.851,0,0,0,18.839-18.824,18.851,18.851,0,0,0-18.839-18.824h-14.882c.023-.269.023-.53.023-.8a18.84,18.84,0,0,0-18.809-18.821h-71.1a18.849,18.849,0,0,0-18.84,18.821,18.849,18.849,0,0,0,18.84,18.82h14.882c-.023.269-.023.533-.023.8A18.837,18.837,0,0,0,7168.8-2390.919Z" fill="#141f35" stroke="#2a7de1" stroke-linecap="round" stroke-linejoin="round" stroke-width="2.839"/>
    <path id="Trazado_100" data-name="Trazado 100" d="M7140.313-2689.118a6,6,0,0,1-5.91-6v-8.559h-3.1v8.559a9.111,9.111,0,0,0,9.1,9.1h388v-3.106H7140.313Z" fill="#2a7de1"/>
    <path id="Trazado_101" data-name="Trazado 101" d="M7245.94-2533.294c1.639,0,2.82-.006,4,0,2.7.015,5.38-.421,8.082-.246,1.288-.432,2.621-.151,3.928-.256a5.926,5.926,0,0,1,1.61-.232c.525.1,1-.219,1.486-.219a16.153,16.153,0,0,1,3.693.184,15.466,15.466,0,0,1,3.484,1.035c1.323.659,2.554,1.5,3.839,2.239a3.462,3.462,0,0,0,1.433.622,2.011,2.011,0,0,0,1.3-.6,8.85,8.85,0,0,0,2.016-2.206c.1-.207.335-.35.508-.523.95-.95,1.873-1.928,2.858-2.841a28.07,28.07,0,0,1,2.665-2.1,21.839,21.839,0,0,0,3.057-2.386,3.142,3.142,0,0,0,.6-2.563c0-.139-.233-.329-.4-.4a2.346,2.346,0,0,1-1.3-2.287,6.293,6.293,0,0,1,.908-3.659c.668-1.177,1.118-2.48,1.8-3.644a25.186,25.186,0,0,1,2.7-4.262,1.685,1.685,0,0,0,.466-1.274c-.038-.608-.019-1.221-.007-1.831a7.624,7.624,0,0,0-.774-3.222c-.391-.9-.9-1.747-1.369-2.608a8.426,8.426,0,0,1-.8-3.215,4.326,4.326,0,0,1,.877-2.564,3.983,3.983,0,0,1,2.162-1.227,22.684,22.684,0,0,1,2.467-.558,24.207,24.207,0,0,1,2.963-.2,12.241,12.241,0,0,1,3.773.622,5.2,5.2,0,0,0,2.291.339c1.45-.358,2.988-.288,4.375-.928a14.4,14.4,0,0,0,2.836-.537,36.131,36.131,0,0,0,3.725-.733,2.592,2.592,0,0,0,.953-.635,21.418,21.418,0,0,0,2.9-3.682c.649-.871,1.269-1.765,1.95-2.61,1.174-1.455,2.411-2.854,3.69-4.223,1.372-1.468,2.518-3.135,3.888-4.617a45.536,45.536,0,0,0,3.195-3.926,9.317,9.317,0,0,0,1.821-3.269,1.922,1.922,0,0,0,.031-.9,4.586,4.586,0,0,1,.328-3.391,3.532,3.532,0,0,1,1.467-1.71,11.2,11.2,0,0,1,2.5-1.351,1.615,1.615,0,0,0,1.127-1.032c.467-1.574,1.8-2,3.149-2.327a18.938,18.938,0,0,1,2.965-.55c.437-.035.907-.147,1.365-.218a1.953,1.953,0,0,0,.911-.429,1.752,1.752,0,0,0,.593-.839c.119-.514.514-.668.877-.833a4.9,4.9,0,0,1,3.949-.351c.193.041.4.007.6.03a22.588,22.588,0,0,1,4.967.982,7.09,7.09,0,0,1,2.8,1.5c.274.272.506.242.843.077,1.014-.5,2.052-.94,3.087-1.392a5.8,5.8,0,0,1,2.65-.69.923.923,0,0,0,.643-.187,24.552,24.552,0,0,0,2.114-2.284,2.7,2.7,0,0,0,.426-2.567,3.6,3.6,0,0,1,.354-2.778,1.793,1.793,0,0,1,1.6-.986,6.115,6.115,0,0,1,3.208.83c.9.395,1.712.98,2.617,1.349a6.518,6.518,0,0,0,3.1.774,1.749,1.749,0,0,1,1.451.625c.742.755,1.466,1.531,2.253,2.237a21.776,21.776,0,0,0,1.862,1.39,1.962,1.962,0,0,0,1.427.387,6.667,6.667,0,0,1,3.238.734,4.585,4.585,0,0,0,1.143.466,3.538,3.538,0,0,1,2.512,1.734c.1.122.161.267.265.378,1.321,1.409,2.628,2.831,3.98,4.209a3.37,3.37,0,0,0,1.881,1.075,2.681,2.681,0,0,1,1.705,1.491,27.517,27.517,0,0,1,1.411,3.325,18.721,18.721,0,0,0,1.481,2.807,16.384,16.384,0,0,0,2.511,2.743A6.2,6.2,0,0,1,7412.7-2591a9.221,9.221,0,0,1,.2,1.739c.008.855.034,1.712-.007,2.565-.039.823-.164,1.642-.233,2.464a4.188,4.188,0,0,0,.964,2.891,6.5,6.5,0,0,1,.888,2.2,2.734,2.734,0,0,1-.144,2.3,7.036,7.036,0,0,1-1.747,3.682,14.194,14.194,0,0,1-1.5,1.686,6.667,6.667,0,0,1-1.554,1.257,1.291,1.291,0,0,0-.8,1.386,3.687,3.687,0,0,1-.51,2.117c-.146.269-.291.42-.055.809.258.425.018,1.042.271,1.592a6.3,6.3,0,0,1,.277,1.715c.081.577.154,1.156.247,1.731.067.416.182.826.235,1.243.048.384-.043.77.231,1.134.117.156.019.474.019.718,0,1.14.008,2.28,0,3.42a8.11,8.11,0,0,1-.2,2.108c-.168.618-.3,1.262-.443,1.9a6.415,6.415,0,0,1-.826,1.857,1.017,1.017,0,0,0,.186,1.316c.187.214.415.393.6.609a8.15,8.15,0,0,1,1.7,3.331,17.6,17.6,0,0,1,.2,3.693c.01.206-.179.415-.226.633-.1.477.059.558.558.738a7.155,7.155,0,0,0,2.47.225c1.384.011,2.768-.008,4.152.008a1.435,1.435,0,0,0,1.246-.518c1.1-1.53,2.5-2.863,3.195-4.657.478-1.23,1.023-2.426,1.551-3.633a4.542,4.542,0,0,1,1.5-1.8,1.815,1.815,0,0,1,1.532-.37,3.7,3.7,0,0,1,1.365.549,5.4,5.4,0,0,1,1.695,3.215,10.386,10.386,0,0,1,.53,3.335c-.085,1.174.038,2.363-.04,3.539a8.386,8.386,0,0,1-.479,2.116,21.4,21.4,0,0,1-2.529,5.062c-.571.849-1.074,1.751-1.595,2.635a9.272,9.272,0,0,1-2.89,3.308c-.885.571-.948,1.009-.444,2.084.4.854.871,1.674,1.285,2.521a19.68,19.68,0,0,1,1.38,3.336c.244.88.393,1.787.664,2.658a12.918,12.918,0,0,1,.256,2.587c.052.493.216.973.253,1.487a1.225,1.225,0,0,0,.57.837,20.736,20.736,0,0,1,5.112,4.164.63.63,0,0,0,.087.086c.282.2.551.536.852.569.318.034.663-.231,1-.343a8.559,8.559,0,0,0,2.18-1.218,11.284,11.284,0,0,1,3.926-1.713,6.621,6.621,0,0,0,4.651-2.92,10,10,0,0,1,1.047-1.267,8.187,8.187,0,0,0,1.514-3.167,7.575,7.575,0,0,1,1.16-2.2,15.145,15.145,0,0,1,1.975-2.234,20.325,20.325,0,0,0,2.213-2.762,11.678,11.678,0,0,1,1.581-2.021,22.292,22.292,0,0,0,3.35-4.116,6.6,6.6,0,0,1,3.67-2.9,5.811,5.811,0,0,1,1.915-.354,4.391,4.391,0,0,0,1.594-.327,4.347,4.347,0,0,1,1.014-.2c1.467-.133,2.477.732,3.053,2.273.291.776.536,1.569.836,2.341a6.67,6.67,0,0,0,2.764,2.952,5.285,5.285,0,0,1,2.265,2.861,9.315,9.315,0,0,1,.037,4.085,12.3,12.3,0,0,0-.269,2.207c-.042,1.342-.012,2.687-.012,4.03a4.047,4.047,0,0,0,.224,1.617c.187.453-.2,1.046.265,1.478-.115,1.274.248,2.575-.2,3.827-.145.406.169.9-.253,1.238-.325,2.024-1.555,3.609-2.609,5.266a18.031,18.031,0,0,1-1.708,1.984c-.465.538-.905,1.1-1.385,1.623a14.008,14.008,0,0,1-5.883,3.483,6,6,0,0,1-2.6.51,13.591,13.591,0,0,1-2.2-.6,5.8,5.8,0,0,0-.593-.339.807.807,0,0,0-1.132.48c-.687,1.5-1.414,2.993-1.969,4.558-.238.672-.572,1.308-.841,1.972-.92,2.268-1.83,4.536-2.6,6.865a4.945,4.945,0,0,1-1.265,2.168c-.37.34-.621.806-.964,1.18a21.967,21.967,0,0,1-6.988,4.945,9.4,9.4,0,0,1-1.873.8c-.625.147-1.264.272-1.892.416-.682.156-1.415.1-2.088.282a11.127,11.127,0,0,0-1.977.82c-.511.25-.964.618-1.477.861a42.6,42.6,0,0,0-5.229,2.978,9.63,9.63,0,0,0-3.219,3.128,3.718,3.718,0,0,1-.6.61c-.356.374-.282.688.212.862.427.15.866.267,1.292.42a4.786,4.786,0,0,1,3.142,2.4,5.3,5.3,0,0,0,.6.609c1.008,1.007,2.068,1.968,3.009,3.035a10.526,10.526,0,0,1,2.551,4.193,4.809,4.809,0,0,1,.178.777c.031.3-.125.654.216.892.042.029.02.149.027.228l-.41,2.639a5.84,5.84,0,0,1-1.56,2.77,22.793,22.793,0,0,1-6.862,4.657,9.748,9.748,0,0,1-2.241.77,6.461,6.461,0,0,0-2.843,1.678,22.9,22.9,0,0,1-2.389,1.905,3.876,3.876,0,0,0-1.233,1.426q-1.208,2.191-2.5,4.339a6.479,6.479,0,0,1-3.32,2.962,1.724,1.724,0,0,0-1.065,1.732c-.032.445.016.9-.01,1.343-.069,1.147-.11,2.3-.259,3.438a6.579,6.579,0,0,1-.58,1.951,1.14,1.14,0,0,0-.1.908c.357.771.438,1.614.722,2.39.274.748.474,1.516.749,2.255.2.543.27,1.1.447,1.645a3.994,3.994,0,0,1,.256,1.609,1.736,1.736,0,0,0,.134.55,2.072,2.072,0,0,1,.1.326.93.93,0,0,1-.005.483c-.43.815-.093,1.718-.319,2.555-.306,1.137-.645,2.268-.881,3.419a11.693,11.693,0,0,1-1.884,4.474,17.252,17.252,0,0,0-1.862,3.5c-.453,1.109-.942,2.215-1.389,3.332q-.775,1.94-1.466,3.912c-.436,1.245-.853,2.5-1.289,3.744a13.848,13.848,0,0,1-1.683,2.719c-.188.291-.389.576-.6.848a4.319,4.319,0,0,1-1.974,1.42,3.729,3.729,0,0,0-1.5,1.092c-.207.222-.505.514-.487.754a1.569,1.569,0,0,0,.488.99,4.158,4.158,0,0,1,.907,1.715c.129.283-.015.7-.06,1.05-.024.185-.167.372-.144.544.135,1.03-.547,1.505-1.288,1.93a1.759,1.759,0,0,1-.75.241c-.649.033-1.3.011-1.953.011-.471-.575-1.284.1-1.757-.48-.017-.021-.079-.016-.117-.008-.888.188-1.7-.31-2.586-.256-.852.052-1.716-.052-2.562.034a6.645,6.645,0,0,0-1.615.508,2.592,2.592,0,0,1-3-.615,16.6,16.6,0,0,1-2.143-2.907c-.248-.382-.443-.8-.7-1.173a.552.552,0,0,0-.826-.113c-.249.194-.472.423-.726.61a6.877,6.877,0,0,1-2.522.989c-.954.237-1.891.542-2.836.816-1.017.3-2.023.645-3.056.871-1.378.3-2.7.822-4.107,1.021a1.639,1.639,0,0,0-1.17.892,6.763,6.763,0,0,1-1.515,1.938c-.225.206-.535.392-.632.653a19.475,19.475,0,0,1-2.007,3.321,3.257,3.257,0,0,0-.505,1.875,1.086,1.086,0,0,0,.778,1.06,2.42,2.42,0,0,1,1.678,2.4,3.448,3.448,0,0,1-.241,1.854,2.947,2.947,0,0,1-1.261,1.3c-1.5.717-2.98,1.468-4.432,2.271a26.712,26.712,0,0,1-4.939,1.937c-.651.208-1.352.271-1.988.512a3.259,3.259,0,0,0-2.124,1.635c-.489,1.1-.976,2.2-1.419,3.321a7.454,7.454,0,0,1-2.284,3.322,2.671,2.671,0,0,1-1.887.747,2.094,2.094,0,0,0-.488,0,4.566,4.566,0,0,1-3.854-1.6,37.4,37.4,0,0,1-3.752-4.415c-.7-.929-1.406-1.855-2.034-2.835-.451-.7-.867-1.43-1.293-2.15-.753-1.276-1.54-2.533-2.241-3.837-.61-1.136-1.342-2.2-1.943-3.342a8.367,8.367,0,0,0-1.949-2.743,1.233,1.233,0,0,0-.72-.345,13.228,13.228,0,0,0-3.918.324,5.275,5.275,0,0,1-3.764-.545,5.3,5.3,0,0,1-2.322-2.806c-.313-.733-.407-1.532-.711-2.271-.1-.233-.163-.277-.388-.313-.9-.146-1.629.45-2.472.538-.18.019-.348.188-.524.193-.418.013-.341.324-.287.512a7.318,7.318,0,0,0,.524,1.368,36.2,36.2,0,0,1,2.49,5.93,6.5,6.5,0,0,1,.374,1.671,8.79,8.79,0,0,1-.242,3.434,6.233,6.233,0,0,1-1.425,2.341c-.523.513-1.037,1.035-1.555,1.553a.54.54,0,0,0-.01.832c.191.211.421.389.6.611a1.556,1.556,0,0,1,.455,1.153,6.254,6.254,0,0,1-.219,2.109,2.127,2.127,0,0,1-1.886,1.456,5.177,5.177,0,0,1-2.052-.052c-.637-.288-1.37.1-1.9-.434a29.687,29.687,0,0,1-3.094-.5c-.679-.043-1.279-.443-1.983-.533a6.134,6.134,0,0,1-1.758-.743,12.307,12.307,0,0,1-2.884-1.89c-.743-.667-1.162-.655-1.919-.006a13.223,13.223,0,0,1-3.4,2.128,7.87,7.87,0,0,0-2.2,1.759.542.542,0,0,0-.157.3c-.092.657-.207,1.314-.241,1.975a2.112,2.112,0,0,1-1.3,1.914,2.792,2.792,0,0,1-2.756.253c-.125-.069-.32-.014-.483-.009a27.8,27.8,0,0,1-3.2-.529c-.417-.458-1.043-.073-1.547-.414-.377-.256-.971-.18-1.463-.283-.9-.187-1.789-.4-2.682-.6a7.694,7.694,0,0,0-1.555-.353c-1.026-.014-1.969-.452-2.973-.5s-2.036-.035-3.053,0a1.135,1.135,0,0,1-1.241-.847c-.289-.734-.755-1.4-1.09-2.114a7.279,7.279,0,0,0-1.824-2.539,7.652,7.652,0,0,1-2.449-5.1,7.112,7.112,0,0,0-.414-1.658c-.207-.519.2-1.134-.3-1.59-.061-.055-.006-.235-.009-.357a16.657,16.657,0,0,0-1.017-4.956,9.332,9.332,0,0,0-.609-1.949c-.334-.567-.3-1.342-.6-1.943-.305-.62-.376-1.307-.7-1.911-.123-.229-.153-.5-.255-.748a.74.74,0,0,0-.752-.454,3.435,3.435,0,0,1-1.279-.141,3.194,3.194,0,0,1-2.117-3.259c0-1.263.011-2.525-.006-3.786-.007-.555.361-1.024.269-1.612-.088-.556.013-1.139-.028-1.706-.044-.621-.15-1.237-.237-1.854-.08-.577.218-1.207-.243-1.731a18.921,18.921,0,0,1,.2-2.715,6.312,6.312,0,0,1,.99-2.284,10.454,10.454,0,0,1,1.542-1.8c.305-.307.041-.45-.112-.515-.692-.295-1.424-.5-2.1-.818s-1.46-.346-2.163-.683a12.186,12.186,0,0,0-1.952-.3,27.178,27.178,0,0,1-3.133-.686,3.872,3.872,0,0,1-2.794-3.814c0-.692.01-1.384,0-2.076a11.96,11.96,0,0,1,.618-3.411c.536-1.927,1.067-3.856,1.771-5.736.247-.661.334-1.4.524-2.1.2-.744-.123-1.251-.978-1.693a10.6,10.6,0,0,0-2.162-.958,19.783,19.783,0,0,1-3.037-1.23,7.958,7.958,0,0,0-4.688-.707c-1.243.235-2.564.087-3.735.69-1.6-.014-3.25.239-4.768-.292a7.128,7.128,0,0,1-2.817-1.75,1.125,1.125,0,0,0-1.749-.02c-.627.549-1.285,1.066-1.878,1.648a15.37,15.37,0,0,0-2.267,3.086,6.682,6.682,0,0,1-3.9,3.321,24.221,24.221,0,0,1-4.042.867,20.985,20.985,0,0,0-3.85.716c-.469.139-.921.336-1.388.48-.434.135-.832.364-1.246.533a19.077,19.077,0,0,0-2.572,1.455,4.9,4.9,0,0,1-3.027.946,2.921,2.921,0,0,1-2.448-1.515,8.214,8.214,0,0,1-.772-2.253,15.1,15.1,0,0,1-.208-2.473c-.015-.223-.139-.436-.17-.659-.044-.314-.185-.731-.042-.933.445-.628.019-1.391.431-2.034a.824.824,0,0,0-.277-1.077c-.575-.4-1.115-.847-1.676-1.267a13.149,13.149,0,0,0-4.439-1.966,10.635,10.635,0,0,1-2.537-.952,2.918,2.918,0,0,1-1.538-2.549c-.024-.487.026-.979-.011-1.464a6.177,6.177,0,0,1,.732-3,21.268,21.268,0,0,1,2.538-4.443,1.535,1.535,0,0,0,.163-1.814c-.7-1.337-1.28-2.741-2.058-4.028a36.424,36.424,0,0,0-2.371-3.672c-.469-.6-1-1.129-1.488-1.7a5.962,5.962,0,0,1-1.66-4.073,22.526,22.526,0,0,1-.265-2.344,14.46,14.46,0,0,0,.007-2.318,1.819,1.819,0,0,0-.262-.98,14.49,14.49,0,0,0-1.535-2.3,8.222,8.222,0,0,1-1.032-1.038,4.983,4.983,0,0,0-3.1-1.656,5.13,5.13,0,0,1-3.354-2.272,16.956,16.956,0,0,1-1.724-3.565,11.008,11.008,0,0,0-2.011-3.448c-1.123-1.286-2.21-2.6-3.358-3.867a11.475,11.475,0,0,1-2.262-3.69,4.932,4.932,0,0,1-.38-1.545,9.484,9.484,0,0,1,.205-3.08,8.027,8.027,0,0,1,1.3-2.63,10.459,10.459,0,0,0,1.457-2.212,6.56,6.56,0,0,0,.672-2.651,10.179,10.179,0,0,1,.5-2.972,3.418,3.418,0,0,1,2.825-2.268c.583-.056,1.12-.386,1.731-.255.451.1.906.189,1.364.241a3.766,3.766,0,0,1,1.379.22c.35.173.815.043,1.243.243a6.174,6.174,0,0,0,1.235.24c1.268.276,2.447.8,3.679,1.157a10.828,10.828,0,0,0,3.686.835,1.331,1.331,0,0,0,.364-.008,7.2,7.2,0,0,0,.821-.375c.487-.259-.053-.507-.044-.779a9.353,9.353,0,0,0-.738-3.346,4.578,4.578,0,0,0-1.9-2.077c-.558-.384-1.239-.6-1.77-1.009a2.031,2.031,0,0,1-.942-1.516,1.961,1.961,0,0,0-.182-1.026c-.276-.488.165-1.579.518-2.058a5.076,5.076,0,0,1,3.088-1.687c1.252-.318,2.464-.769,3.727-1.06.878-.2,1.757-.467,2.64-.683,1.014-.247,2.064-.363,3.08-.56a19.8,19.8,0,0,1,2.965-.173,11.81,11.81,0,0,1,3.043.034,22.8,22.8,0,0,0,3.45.2,20.062,20.062,0,0,1,3.207.2,5.683,5.683,0,0,0,3.376-.625,23.262,23.262,0,0,0,3.159-1.518c.907-.539,1.868-.99,2.807-1.475.268-.138.548-.251.815-.391,1.445-.761,1.392-.765,1.457-2.29a6.106,6.106,0,0,0-1.82-4.382c-.415-.475-.811-.965-1.21-1.453s-.853-.923-1.249-1.422a9.789,9.789,0,0,0-2.386-2.156,7.277,7.277,0,0,1-1.9-2.148,51.559,51.559,0,0,1-3.662-6.788c-.577-1.1-1.159-2.206-1.7-3.325a1.685,1.685,0,0,0-1.653-1.053c-1.832.009-3.666-.054-5.5.028-.858.038-1.707.254-2.587.233a10.914,10.914,0,0,1-2.849-.507,4.938,4.938,0,0,1-2.894-2.4,9.3,9.3,0,0,1-.924-2.8c-.42-1.923-.093-3.849-.211-5.768-.032-.508.343-.94.259-1.489a3.735,3.735,0,0,1,.185-1.494,7,7,0,0,0,.028-2.065,1.222,1.222,0,0,0-.27-.733c-.922-.967-1.578-2.184-2.814-2.863a9.3,9.3,0,0,1-1.463-1.193c-1.175-1.007-2.515-1.78-3.774-2.667-1.321-.93-2.7-1.758-4.031-2.675a50.336,50.336,0,0,0-4.384-2.676c-1.893-1.04-3.827-2-5.662-3.151a10.9,10.9,0,0,1-4.463-5.97,28.209,28.209,0,0,1-.723-2.753,22.309,22.309,0,0,0-1.241-3.761,39.864,39.864,0,0,1-2.123-5.712,12.931,12.931,0,0,1-.071-2.176,6.147,6.147,0,0,1,1.4-4.052,9.472,9.472,0,0,1,2.991-2.721,8.227,8.227,0,0,1,2.135-1.05c.472-.117,1.1-.216,1.186-.91a16.112,16.112,0,0,0,2.161-3.379,12.28,12.28,0,0,0,.9-2.927,11.218,11.218,0,0,0,.21-3.08c-.01-.537-.184-1.07-.223-1.609-.041-.567.061-1.15-.021-1.708a7.478,7.478,0,0,1,.732-5.119,9.011,9.011,0,0,0,.724-2.259,31.848,31.848,0,0,1,1.158-4.409,6.467,6.467,0,0,1,2.11-3.274,3.869,3.869,0,0,1,3.1-1.018,18.17,18.17,0,0,1,2.787.921,38.187,38.187,0,0,1,4.35,1.884c.567.284,1.263.327,1.8.644a2.83,2.83,0,0,0,1.516.169c.4.017.775-.538.774-1.143a3.914,3.914,0,0,0-.2-1.743c-.346-.763-.2-1.667-.5-2.48a5.411,5.411,0,0,1-.031-1.213,6.443,6.443,0,0,1-.217-1.119,5.769,5.769,0,0,0-.752-3.117,7.248,7.248,0,0,1-.743-2.75,6.212,6.212,0,0,1,2.278-5.165,4.518,4.518,0,0,1,1.292-1,2.65,2.65,0,0,0,.826-.65c.513-.467.482-.471.048-.946-.59-.644-1.118-1.349-1.738-1.961a27.021,27.021,0,0,0-5.39-4.071,13.923,13.923,0,0,1-4.04-3.473,9.728,9.728,0,0,1-1.557-3.129,12.955,12.955,0,0,0-2.022-3.559c-.507-.737-1.126-1.4-1.617-2.145a3.742,3.742,0,0,1-.508-1.369c-.089-.493-.171-1-.218-1.487a4.44,4.44,0,0,1,1.279-3.84,13.073,13.073,0,0,1,2.032-1.853,2.057,2.057,0,0,0,.76-1.241,9.977,9.977,0,0,0,.264-1.236,3.726,3.726,0,0,1,2.725-3.262,3.976,3.976,0,0,1,1.6-.271c1.382.043,2.768.023,4.152.011a17.055,17.055,0,0,1,2.625.42,14.01,14.01,0,0,1,2.853.8c.566.208,1.132.412,1.7.619a6.063,6.063,0,0,1,1.154.449c.254.159.378.2.6-.016a9.109,9.109,0,0,0,2.709-4.137,2.765,2.765,0,0,0,.157-.9,4.443,4.443,0,0,1,1.459-3.424c1.216-1.225,2.548-2.335,3.765-3.561,1.733-1.745,3.379-3.577,5.114-5.32a10.4,10.4,0,0,1,3.587-2.235,1.9,1.9,0,0,0,1-.851,11.423,11.423,0,0,0,1.189-2.929,6.011,6.011,0,0,1,2.342-3.277,3.31,3.31,0,0,1,2.679-.512,10.076,10.076,0,0,1,2.945,1.152c.92.617,1.89,1.167,2.769,1.844q1.545,1.191,3.016,2.477a13.837,13.837,0,0,1,3.6,4.488,7.4,7.4,0,0,1,.713,2.259c.1,1.128.472,2.2.563,3.333a17.782,17.782,0,0,0,.79,2.955c.232.885.4,1.787.64,2.668a19.477,19.477,0,0,1,.222,4.908,2.844,2.844,0,0,0,1.06,2.361c.62.463,1.19.99,1.834,1.432a12,12,0,0,0,2.539,1.26,2.012,2.012,0,0,0,.7.086c.9.01,1.8-.063,2.685.02a4.463,4.463,0,0,1,3.2,1.753c1.359,1.679,1.91,3.688,2.66,5.626.559,1.445.955,2.95,1.378,4.43.468,1.639.98,3.276,1.342,4.953.214.992.573,1.964.787,2.967.014.067.147.116.151.178a18.079,18.079,0,0,1,.225,4.168,5.461,5.461,0,0,1-1.543,3.271c-.493.446-.8,1.12-1.322,1.507-1.33.98-2.325,2.361-3.822,3.137a18.241,18.241,0,0,1-1.562.948,5.081,5.081,0,0,0-1.5,1.114,23.254,23.254,0,0,0-3.709,4.451,10.229,10.229,0,0,0-1.606,3.358,7.278,7.278,0,0,0-.035,2.664,11.446,11.446,0,0,1-.022,4.444,1.323,1.323,0,0,0,0,.365,9.88,9.88,0,0,1-.809,3.577,16.285,16.285,0,0,1-1.154,2.572c-.321.643-.754,1.233-1.057,1.883a24.784,24.784,0,0,0-1.906,5.325,8.092,8.092,0,0,1-1.024,2.747,28.861,28.861,0,0,1-1.558,2.531q-2.109,2.652-4.381,5.16a10.064,10.064,0,0,0-2.318,3.177,4.773,4.773,0,0,0-.45,1.887c.121,2.652.333,5.3.264,7.96a8.54,8.54,0,0,1-.266,1.486c-.09.455.193.949-.212,1.387-.123.132-.03.468-.03.711,0,.9.006,1.791,0,2.686a2.163,2.163,0,0,0,.231,1.13c.16.293-.16.725.191,1.018a.171.171,0,0,1,.067.093,13.728,13.728,0,0,1,.2,2.946,17.773,17.773,0,0,1-.452,3.221,11.784,11.784,0,0,1-.757,1.882,4.752,4.752,0,0,0-.013,3.9c.807,2.011,2.042,3.788,2.885,5.767a24.647,24.647,0,0,1,1.084,3.217,5.44,5.44,0,0,1,.227,1.857c-.036.477.42.864.246,1.365a15.34,15.34,0,0,0,1.405,1.333,18.061,18.061,0,0,1,4.185,4,3.7,3.7,0,0,1,.762,2.251c-.008.448-.012.9,0,1.344.015.51.142.619.715.721.376.067.743.191,1.121.233.362.04.738-.033,1.1.018a6.934,6.934,0,0,0,1.611.248,2.493,2.493,0,0,1,1.614.22c.118.073.319.01.482.011,2.33.021,4.647.4,6.983.244C7241.565-2533,7243.993-2533.469,7245.94-2533.294Z" fill="#3bd4ae"/>
    <path id="Trazado_102" data-name="Trazado 102" d="M7246.229-2527.676c-1.872,0-3.748-.067-5.617.019-1.894.087-3.75-.357-5.64-.278a4.813,4.813,0,0,1-2.111-.195,5.674,5.674,0,0,0-1.573-.043c-.539-.042-1.07-.181-1.61-.23-1.1-.1-2.211-.169-3.317-.251-.078,0-.194.011-.227-.033-.282-.37-.678-.143-1.015-.213a4.023,4.023,0,0,0-1-.226,6.147,6.147,0,0,1-3.111-1.052,2.26,2.26,0,0,1-1.055-1.732,9.314,9.314,0,0,1,0-2.314,3.52,3.52,0,0,1,.474-1.14c.076-.152.315-.213.057-.443-1.016-.905-2.01-1.836-3.013-2.757-.03-.027-.052-.067-.087-.085a5.931,5.931,0,0,1-2.478-2.985,3.877,3.877,0,0,1-.339-1.2c-.114-.858-.17-1.723-.257-2.584a1.164,1.164,0,0,0-.107-.321c-.368-.865-.693-1.746-1.086-2.6A40.29,40.29,0,0,1,7210.8-2553c-.266-.854-.566-1.72-.91-2.55-.389-.938-.046-1.936-.429-2.876-.19-.467.116-1.073.165-1.6a9.367,9.367,0,0,1,1.014-3.259,4.955,4.955,0,0,0,.482-1.384,22.221,22.221,0,0,0-.234-3.925c-.494-.475-.139-1.076-.236-1.611a7.994,7.994,0,0,1-.232-1.608c.026-1.066.147-2.131.228-3.2,0-.041-.018-.1,0-.12.476-.457.034-1.109.317-1.578a3.059,3.059,0,0,0,.152-1.764,11.061,11.061,0,0,0-.228-3.685,34.685,34.685,0,0,1,.212-5.035,11.5,11.5,0,0,1,2.038-4.659c.642-.789,1.211-1.646,1.915-2.374,1.134-1.173,2.166-2.423,3.2-3.68a27.4,27.4,0,0,0,1.795-2.562,9,9,0,0,0,1.074-2.971,26.247,26.247,0,0,1,1.609-4.589c.616-1.419,1.426-2.743,2.089-4.142a9.287,9.287,0,0,0,.966-4.118c-.006-.547-.148-1.088-.2-1.613a25.5,25.5,0,0,1-.013-4.146,7.043,7.043,0,0,1,.3-1.576,15.04,15.04,0,0,1,1.867-3.989,27.614,27.614,0,0,1,3.906-4.978,12.141,12.141,0,0,0,.947-.952,7.938,7.938,0,0,1,2.148-1.606,12.137,12.137,0,0,0,3.47-2.533c.183-.217.365-.5.608-.591.84-.327,1.2-1.094,1.7-1.734.108-.14.214-.4.154-.53a10.119,10.119,0,0,1-.459-2.007,5.451,5.451,0,0,1-.5-1.993,45.916,45.916,0,0,1-1.437-4.532,28.536,28.536,0,0,1-.976-3.378c-.255-1.079-.814-2.039-1.039-3.12-.058-.281-.325-.513-.451-.787a1.689,1.689,0,0,0-1.671-1.03,10.828,10.828,0,0,1-3.96-.464,15.22,15.22,0,0,1-3.211-1.677c-.648-.446-1.185-1.05-1.821-1.515a5.385,5.385,0,0,1-2.044-2.329,7.315,7.315,0,0,1-.977-3.5c0-1.139-.024-2.28.006-3.419a11.02,11.02,0,0,0-.668-3.268,29.8,29.8,0,0,1-.784-2.968c-.211-1.251-.489-2.485-.737-3.726a4.707,4.707,0,0,0-1.01-2.139c-.567-.672-.957-1.553-1.86-1.907a21.536,21.536,0,0,0-3.006-2.488,10.613,10.613,0,0,0-1.845-1.132c-.741-.4-1.364-.287-1.538.4-.125.5-.417.9-.529,1.375a6.761,6.761,0,0,1-1.23,2.662,5.834,5.834,0,0,1-2.441,1.947,8.3,8.3,0,0,0-2.916,1.8c-1.6,1.652-3.147,3.348-4.762,4.982-.985,1-2.064,1.9-3.082,2.862a2.955,2.955,0,0,0-.969,2.165,6.25,6.25,0,0,1-.876,2.8,16.885,16.885,0,0,1-3.325,4.376,4.861,4.861,0,0,1-4.476,1.181,16.013,16.013,0,0,1-2.941-1.134,15.835,15.835,0,0,0-5.228-1.23c-.689-.043-1.384-.023-2.075,0-.3.01-.651-.145-.906.167-.293.357-.661.6-.722,1.179a4.033,4.033,0,0,1-.719,1.772,16.487,16.487,0,0,1-1.667,1.868q-.472.519-.946,1.036c.288.451.574.9.866,1.351a1.542,1.542,0,0,0,.17.174,13.378,13.378,0,0,1,2.569,4.431,7.021,7.021,0,0,0,1.565,2.657,13.771,13.771,0,0,0,2.352,1.714,28.768,28.768,0,0,1,6.161,4.851c1.28,1.453,2.644,2.816,3.981,4.211a2.69,2.69,0,0,1,.86,2.084,7.773,7.773,0,0,0,0,1.1,2.761,2.761,0,0,1-.892,2.193,9.4,9.4,0,0,1-1.188.956c-1.122.822-2.257,1.628-3.378,2.452-.225.165-.507.348-.591.583-.069.2.1.487.186.728a4.4,4.4,0,0,0,.241.511,5.811,5.811,0,0,1,.74,2.994,13.33,13.33,0,0,0,.454,3.712,12.711,12.711,0,0,1,.522,4.066,11.567,11.567,0,0,0-.007,1.221,6.774,6.774,0,0,1-1.215,4.017,5.55,5.55,0,0,1-4.542,2.424,4.5,4.5,0,0,1-1.119-.23,16.742,16.742,0,0,1-1.675-.38,36.089,36.089,0,0,1-3.428-1.453c-.96-.432-1.933-.84-2.919-1.207-1.042-.388-1.548-.21-1.939.782a21.836,21.836,0,0,0-.746,2.622c-.29,1.139-.518,2.288-.91,3.407a5.21,5.21,0,0,0-.555,1.481c-.022.609,0,1.221,0,1.831a7.741,7.741,0,0,0,.009.976c.042.338.208.664.224,1,.036.731.024,1.465.008,2.2a8.25,8.25,0,0,1-.134,2.145c-.205.683.152,1.441-.351,2.049a7.534,7.534,0,0,1-.854,3.067,24.225,24.225,0,0,1-3.52,5.742,4.413,4.413,0,0,1-2.1,1.39,7.819,7.819,0,0,0-3.631,2.426,1.379,1.379,0,0,0-.368.808,4.346,4.346,0,0,0,.363,1.183c.509,1.376,1.1,2.726,1.674,4.069a33.173,33.173,0,0,1,1.573,5.329,7.108,7.108,0,0,0,2.2,3.844,10.387,10.387,0,0,0,2.02,1.3c1.3.683,2.611,1.366,3.925,2.025,2.187,1.1,4.17,2.52,6.226,3.813,1.722,1.083,3.412,2.246,5.065,3.455,1.252.916,2.494,1.856,3.682,2.84a28.418,28.418,0,0,1,2.953,3.156,7.791,7.791,0,0,1,.578.977,7.46,7.46,0,0,1,.954,3.386,5.566,5.566,0,0,1-.18,1.983,17.955,17.955,0,0,0-.286,3.064,2.257,2.257,0,0,1-.011.607c-.49,1.248-.191,2.544-.192,3.81a1.787,1.787,0,0,0,.6,1.329c.382.321.777.185,1.152.169,2-.086,4.015.244,6.01-.214a8.872,8.872,0,0,1,1.583-.022c.556-.023,1.024.382,1.612.261a2.981,2.981,0,0,1,1.724.24,4.75,4.75,0,0,1,2.525,1.877c.63,1.045,1.2,2.1,1.725,3.2a58.542,58.542,0,0,0,4.526,8.384,3.144,3.144,0,0,0,.758.7,9.318,9.318,0,0,1,1.736,1.407c1.005,1.173,1.953,2.4,3.038,3.5a14.9,14.9,0,0,1,2.9,4.428,6.628,6.628,0,0,1,.574,2.317c.089,1.5.051,3.011.014,4.517a5.814,5.814,0,0,1-.467,1.878,6,6,0,0,1-3.19,3.193c-2.4,1.2-4.715,2.547-7.165,3.632a10.59,10.59,0,0,1-4.458,1.031,30.378,30.378,0,0,1-3.445-.21c-1.821-.231-3.667.022-5.519-.227a11.889,11.889,0,0,0-5.292.419,12.711,12.711,0,0,1-1.847.266c-.638.1-1.185.538-1.875.5a.761.761,0,0,0-.585.293c-.07.11.082.39.179.57.214.4.5.77.675,1.187a6.678,6.678,0,0,1,.714,2.131c.041.993.448,1.883.567,2.844.028.227.01.668.5.8a1.426,1.426,0,0,1,.894,1.148c.1.516.671,1.064.057,1.642-.1.1-.031.39-.021.592a1.728,1.728,0,0,1-1.281,1.866,12.7,12.7,0,0,0-2.971,1.367c-1.572.953-3.223.584-4.853.688-.29-.511-.876-.1-1.3-.44-.34-.275-.99-.126-1.443-.312a31.791,31.791,0,0,0-4.978-1.548,8.658,8.658,0,0,0-2.89-.372.736.736,0,0,0-.539.379,5.851,5.851,0,0,0-.252,1.6,8.673,8.673,0,0,1-1.019,3.614,12.2,12.2,0,0,1-1.706,2.59c-.218.276-.5.458-.493.908a1.962,1.962,0,0,0,.358,1.079,11.126,11.126,0,0,0,1.366,1.634c1.028,1.049,1.93,2.2,2.855,3.336a20.279,20.279,0,0,1,3.279,6.1c.386,1.08.918,2.1,2.369,1.964.125-.012.258.17.4.2,1.745.353,3,1.536,4.278,2.622a14.7,14.7,0,0,1,1.75,2.189,14.641,14.641,0,0,1,2.183,4.958c-.172.926.258,1.8.246,2.708-.01.773.013,1.547-.009,2.32a1.023,1.023,0,0,0,.332.849,15.345,15.345,0,0,1,1.588,1.771,44.243,44.243,0,0,1,3.212,5.029,9.038,9.038,0,0,0,.577,1.221,20.633,20.633,0,0,1,2.087,4.149,6.993,6.993,0,0,1,.494,2.23c.045.4-.217.827-.208,1.239a4.838,4.838,0,0,1-1.3,3.131,15.98,15.98,0,0,0-2,3.2c-.082.18-.109.166.079.291a14.212,14.212,0,0,0,2.431.924,19.849,19.849,0,0,1,5.357,3.281c.809.8,1.588,1.638,2.426,2.41a3.661,3.661,0,0,1,1.305,3.133,2.667,2.667,0,0,1-1.36,2.491c-.267.138-.651.376-.606.83.008.08.009.16.012.24a.787.787,0,0,0,.257-.041,13.1,13.1,0,0,1,1.886-1.048c1.207-.428,2.383-.936,3.6-1.338,1.291-.425,2.623-.5,3.911-.857.784-.217,1.652-.113,2.452-.291a5.175,5.175,0,0,0,2.124-.737,3.7,3.7,0,0,0,.881-1.313,14.488,14.488,0,0,1,2.346-3.3,22.029,22.029,0,0,1,4.181-3.462,4.358,4.358,0,0,1,4.51-.191,13.611,13.611,0,0,1,1.332,1.217c.292.257.619.476.919.725.976.811,2.138.379,3.218.487.375-.556,1.029-.088,1.538-.445.428-.3,1.114.038,1.721-.244a4.348,4.348,0,0,1,1.689-.043,14.018,14.018,0,0,0,1.465-.008,9.107,9.107,0,0,1,4.234.992c1.4.537,2.773,1.174,4.185,1.688a11.61,11.61,0,0,1,2.56,1.21,5.887,5.887,0,0,1,2.492,4.106,10.676,10.676,0,0,1,.016,2.438,10.537,10.537,0,0,1-.259,2.335c-.348,1.233-.807,2.441-1.122,3.681a10.819,10.819,0,0,0-.808,2.966,7.966,7.966,0,0,0-.594,2.075c-.149.42,0,.736.372.733.556,0,1.082.193,1.61.229a18.084,18.084,0,0,1,3.925.879,19.846,19.846,0,0,1,4.271,1.766,5.227,5.227,0,0,0,1.116.547,8.026,8.026,0,0,1,3.435,2.04c.346.338.729.724.733,1.153a6.436,6.436,0,0,1-.144,2.735,1.319,1.319,0,0,1-.179.412,4.9,4.9,0,0,1-2.127,1.632,3.654,3.654,0,0,0-1.612.832,8.846,8.846,0,0,0-1.649,1.542c-.261.409-.1,1.091-.118,1.651-.009.243.019.49-.006.732-.038.359.074.525.459.477.311-.039.233.213.287.4.266.907.561,1.8.823,2.715.623,2.173,1.374,4.311,2.1,6.452.6,1.75,1.106,3.529,1.672,5.289a19.417,19.417,0,0,1,1.254,4.49c.412.442.072,1.04.267,1.477.5,1.122.347,2.352.689,3.5.2.664.059,1.437.3,2.079a4.759,4.759,0,0,0,1.271,2.418,8.673,8.673,0,0,1,2.364,3.158,1.681,1.681,0,0,0,1.579,1c.544.02,1.116-.128,1.608.242,1.153-.1,2.2.506,3.34.489.426.4.992.132,1.463.3.862.311,1.788.352,2.657.658.5.176,1.178.021,1.575.3.51.359,1.073.024,1.575.38a1.542,1.542,0,0,0,1.262-.03c.2-.086.172-.636.34-.921a8.631,8.631,0,0,1,1.045-1.653,11.578,11.578,0,0,1,4.517-3.27c.035-.012.053-.065.088-.083a21.286,21.286,0,0,0,3.477-2.51,5.268,5.268,0,0,1,2.527-.966c.574-.1,1.821.765,2.263,1.283a8.967,8.967,0,0,0,4.166,2.871c.833.264,1.7.38,2.52.69.436.165.545.012.642-.509.034-.182.16-.348.19-.53a4.193,4.193,0,0,1,1.424-2.4c.654-.612,1.242-1.295,1.913-1.886a1.327,1.327,0,0,0,.3-1.692c-.513-1.253-1.007-2.515-1.56-3.75-.647-1.443-1.4-2.841-2.011-4.3a6.27,6.27,0,0,1-.753-3.232,3.526,3.526,0,0,0,0-.732,1.9,1.9,0,0,1,.6-1.465,4.137,4.137,0,0,1,2.544-1.253,10.956,10.956,0,0,0,1.793-.373,36.219,36.219,0,0,1,3.653-1.2,3.956,3.956,0,0,1,2.872.221,4.813,4.813,0,0,1,2.2,2.493,11.993,11.993,0,0,1,.728,2.744,1.678,1.678,0,0,0,.51.9c.309.357.469-.1.7-.112.447-.021.982.148,1.322-.043.478-.269.929-.137,1.385-.21s.908-.175,1.366-.238a7.944,7.944,0,0,1,1.487.209,4.763,4.763,0,0,1,3.311,1.719,17.171,17.171,0,0,1,2.205,3.342c.8,1.424,1.7,2.789,2.5,4.217.816,1.46,1.776,2.841,2.559,4.318a13.839,13.839,0,0,0,1.917,2.869,12.759,12.759,0,0,1,1.2,1.456,18.843,18.843,0,0,0,2.422,2.906c.262.26.45.291.684,0,.1-.126.32-.226.328-.348.052-.758.6-1.3.813-1.991a10.7,10.7,0,0,1,1.565-3.247,7.343,7.343,0,0,1,4.843-3,12.924,12.924,0,0,1,2.242-.481c1.315-.743,2.819-1.066,4.115-1.87.323-.2.476-.332.411-.681-.078-.415-.2-.825-.235-1.244a8.837,8.837,0,0,0-.032-1.336c-.115-.447-.358-.783-.065-1.311.208-.376-.023-.97.109-1.418a9.22,9.22,0,0,1,.9-2.187c.755-1.235,1.6-2.41,2.277-3.7a5.023,5.023,0,0,1,1.451-1.927,3.311,3.311,0,0,0,1.186-1.6,6.74,6.74,0,0,1,1.8-2.418,3.174,3.174,0,0,1,1.489-.785,2.985,2.985,0,0,1,2.4.355c.106.085.359.144.435.082.364-.3.818-.185,1.214-.324a9.521,9.521,0,0,1,2.059-.611c.742-.078,1.359-.5,2.111-.565a1.459,1.459,0,0,0,1.3-.647c.116-.235.156-.506.268-.744a9.246,9.246,0,0,1,3.441-3.921,2.936,2.936,0,0,1,4.252.942,15.174,15.174,0,0,1,1.235,2.781,23.665,23.665,0,0,0,1.79,3.533c.156.268.516.455.709.282.518-.463,1.14-.12,1.7-.331a3.424,3.424,0,0,1,1.891-.1,11.3,11.3,0,0,0,2.593.208c.594,0,.613-.006.6-.562a6.425,6.425,0,0,1,.729-2.876,17,17,0,0,1,1.932-2.981,3.882,3.882,0,0,1,2.251-1.6,1.753,1.753,0,0,0,1.241-.87,11.494,11.494,0,0,0,1.167-2.7c.613-1.58,1.1-3.21,1.739-4.777.554-1.357,1.1-2.722,1.655-4.077a22.291,22.291,0,0,1,2.312-4.416,10.748,10.748,0,0,0,1.415-3.326c.235-.882.43-1.776.624-2.662a4.665,4.665,0,0,0,.015-2.267c-.578-1.878-1.18-3.747-1.714-5.64a7.649,7.649,0,0,1-.661-2.9c.008-.079.027-.182-.012-.237-.659-.928.142-1.669.311-2.49.852-.6.748-1.614.876-2.434.2-1.285.066-2.611.246-3.928a12.868,12.868,0,0,1,.562-2.712,2.908,2.908,0,0,1,2.711-2.227,1.608,1.608,0,0,0,1.2-.65,5.566,5.566,0,0,0,.935-1.2c.729-1.544,1.673-2.968,2.439-4.487a4.693,4.693,0,0,1,1.792-1.926,18.116,18.116,0,0,0,1.7-1.208c.65-.521,1.215-1.159,1.9-1.617a12.118,12.118,0,0,1,2.711-1.411,26.909,26.909,0,0,0,2.969-1.088c1.07-.525,2.02-1.217,3.029-1.826a7.489,7.489,0,0,0,1.614-1.4,1.174,1.174,0,0,0,.15-1.656,12.166,12.166,0,0,0-1.206-1.454c-1.193-1.225-2.481-2.365-3.595-3.656a4.328,4.328,0,0,0-2.112-1.389,13.381,13.381,0,0,1-2.815-1.161,4.454,4.454,0,0,1-2.256-2.767,10.592,10.592,0,0,1-.187-2.111,3,3,0,0,1,.673-2.034c.472-.631,1.052-1.182,1.507-1.824a33.022,33.022,0,0,1,3.929-4.351c.073-.072.226-.058.312-.123a41.867,41.867,0,0,1,4.466-2.771c.858-.49,1.792-.844,2.595-1.4a15.31,15.31,0,0,1,2.626-1.34,11.19,11.19,0,0,1,3.562-.839,5.39,5.39,0,0,0,2.308-.616,26.606,26.606,0,0,0,3.67-2.057,12.477,12.477,0,0,0,3.3-3.189,13.579,13.579,0,0,0,1.079-2.608c.6-1.461,1.1-2.966,1.733-4.411.56-1.274,1.042-2.581,1.622-3.849.4-.875.783-1.791,1.116-2.713a19.832,19.832,0,0,1,1.4-2.714,4.4,4.4,0,0,1,2.331-2.306,3.2,3.2,0,0,1,3.154.52c.291.286.556.6.87.856a3.073,3.073,0,0,0,.971.59c.208.063.5-.122.745-.22a11.007,11.007,0,0,0,4.587-2.776c.633-.743,1.165-1.577,1.831-2.286a12.177,12.177,0,0,0,2.126-3.278,4.088,4.088,0,0,0,.484-2,4.065,4.065,0,0,0-.226-1.5c-.2-.447.061-.966-.218-1.5-.234-.449-.016-1.118-.057-1.685-.039-.539-.233-1.075-.22-1.609.035-1.351.148-2.7.229-4.051,0-.041-.017-.093,0-.121.464-.656.156-1.4.239-2.1.046-.395-.141-.581-.5-.813a9.432,9.432,0,0,1-4.136-5.037,1.5,1.5,0,0,0-1.875-1c-.142.04-.274.189-.407.184a2.07,2.07,0,0,0-1.842,1.122,28.611,28.611,0,0,1-3.9,4.859,16.393,16.393,0,0,0-1.257,1.671c-.56.746-1.1,1.515-1.7,2.224-.644.758-1.414,1.394-2,2.223A8.088,8.088,0,0,0,7451-2511.8a12.951,12.951,0,0,1-1.647,3.222,20.423,20.423,0,0,1-1.635,2.133,10.642,10.642,0,0,1-6.159,3.711,8.862,8.862,0,0,0-2.721,1.07c-1.047.617-2.074,1.275-3.159,1.824a8.052,8.052,0,0,1-2.5.726,4.892,4.892,0,0,1-3.365-1,23.729,23.729,0,0,1-2.655-2.43,12.385,12.385,0,0,0-1.736-1.418,9.289,9.289,0,0,1-2.735-2.251,6.96,6.96,0,0,1-1.21-3.172,26.824,26.824,0,0,1-.27-3.191.981.981,0,0,0,0-.243,35.189,35.189,0,0,0-1.5-4.263c-.529-1.045-1.174-2.038-1.615-3.117a9.861,9.861,0,0,1-1.036-4.213c.018-.366.017-.734,0-1.1a4.033,4.033,0,0,1,1.966-3.629,7.579,7.579,0,0,0,2.689-2.706c.289-.578.708-1.089,1.038-1.648.559-.947,1.095-1.907,1.633-2.865.034-.061,0-.159,0-.239-.087.01-.214-.014-.253.034-.491.607-.978,1.218-1.448,1.841a5.383,5.383,0,0,1-4.2,2.361,43.825,43.825,0,0,1-8.328-.185,6.334,6.334,0,0,1-2.756-1.017,3.808,3.808,0,0,1-1.548-2.526,12.077,12.077,0,0,1-.013-2.2,4.7,4.7,0,0,1,.214-2.109,1.242,1.242,0,0,0-.083-.92,3.923,3.923,0,0,0-.928-1.453c-1.021-.9-2.035-1.811-3.006-2.764a3.953,3.953,0,0,1-.625-3.828,3.2,3.2,0,0,1,1.845-1.767,2.045,2.045,0,0,0,1.117-1.219,15.088,15.088,0,0,0,.48-2,15.556,15.556,0,0,0-.223-3.813c-.167-.546-.05-1.141-.213-1.739a19.119,19.119,0,0,1-.442-2.263c-.111-.768-.282-1.528-.389-2.3a14.169,14.169,0,0,0-.22-1.609,8.714,8.714,0,0,1-.453-2.368c.021-.839-.324-1.611-.285-2.465a2.94,2.94,0,0,1,1.533-2.7,1.431,1.431,0,0,0,.445-.377,2.491,2.491,0,0,1,1.861-1.076,1.816,1.816,0,0,0,1.243-.544c.35-.34.693-.687,1.037-1.035.945-.957.908-1.43.381-2.347a9.04,9.04,0,0,1-1.111-4.307,34.37,34.37,0,0,1,.268-4.661,2.713,2.713,0,0,0-1-2.408,19.507,19.507,0,0,1-2.711-3.138,37.222,37.222,0,0,1-2.41-4.749,1.238,1.238,0,0,0-.867-1.194,14.627,14.627,0,0,1-1.43-.973,13.97,13.97,0,0,1-2.955-2.818c-.518-.6-1.094-1.15-1.595-1.765a4.738,4.738,0,0,0-2.009-1.342c-.139-.055-.23-.223-.367-.294a4.87,4.87,0,0,0-2.55-.933,6.174,6.174,0,0,1-3.761-1.226,16.3,16.3,0,0,1-3.161-2.683,1.984,1.984,0,0,0-1.171-.707,12.9,12.9,0,0,1-3.332-1.1c-.877-.376-1.378-.119-1.728.772a9.479,9.479,0,0,1-.9,1.821,18.612,18.612,0,0,1-3.026,3.258,3.9,3.9,0,0,1-1.927,1.219c-.507.08-1.025.079-1.537.13a2.635,2.635,0,0,0-.913.149c-1.075.548-2.224.922-3.288,1.511a3.923,3.923,0,0,1-2.226.808c-.832.521-1.481.032-2.075-.444-.536-.43-.983-.971-1.481-1.452a1.335,1.335,0,0,0-.474-.324,19.029,19.029,0,0,0-5.089-1,2.055,2.055,0,0,0-1.469.6,5.838,5.838,0,0,1-1.019.777,12.009,12.009,0,0,1-4.577,1.351,5.155,5.155,0,0,0-1.649.429,2.507,2.507,0,0,0-1.141,1.007c-.464.923-1.34,1.228-2.109,1.707-.482.3-1,.545-1.473.86a1.129,1.129,0,0,0-.519,1.008c-.013.9-.14,1.806-.229,2.708a1.443,1.443,0,0,1-.12.315,14.565,14.565,0,0,1-1.573,3.137,26.625,26.625,0,0,1-3.867,4.991,2.078,2.078,0,0,0-.426.435,25.35,25.35,0,0,1-2.885,3.555c-1,1.221-2.05,2.418-3.1,3.606-.836.949-1.628,1.923-2.417,2.909-1.065,1.333-1.913,2.815-2.971,4.142a8.979,8.979,0,0,1-2.245,2.147c-.39.24-.712.626-1.17.713-1.013.192-1.907.856-2.992.743a10.3,10.3,0,0,1-3,.686c-.976.2-1.971.409-2.934.631-1.166.269-2.35.428-3.517.6a10.925,10.925,0,0,1-4.967-.629,7.637,7.637,0,0,0-3.171-.3,2.025,2.025,0,0,0-1.071.329c-.331.288.125.623.176.952a1.818,1.818,0,0,0,.135.432,14.357,14.357,0,0,1,1.339,5.923,3.431,3.431,0,0,0,.206,1.867,1.226,1.226,0,0,1-.005,1.064,1.9,1.9,0,0,0-.208,1.141,4.727,4.727,0,0,1-1.039,2.624c-.291.413-.65.782-.913,1.212-.753,1.231-1.48,2.478-2.2,3.727a2.337,2.337,0,0,0-.385,2.195,15.579,15.579,0,0,1,.629,3.4,6.863,6.863,0,0,1-.243,1.853c-.025.365.027.736-.013,1.1a7.205,7.205,0,0,1-.239,1.121,7.351,7.351,0,0,1-1.3,2.754,20.082,20.082,0,0,1-3.79,3.224,23.951,23.951,0,0,0-2.954,2.307c-.8.813-1.61,1.613-2.416,2.419a6.36,6.36,0,0,0-.515.521,9.732,9.732,0,0,1-4.242,3.567,5.125,5.125,0,0,1-4.056.108,22.355,22.355,0,0,1-4.194-2.251,9.092,9.092,0,0,0-1.734-.838,11.52,11.52,0,0,0-2-.493,5.369,5.369,0,0,0-1.889-.021c-.989.2-2.04.105-3.068.274-1.129.186-2.284-.048-3.446.228a8.654,8.654,0,0,1-2.8.022c-.975-.1-1.873.289-2.832.276C7251.2-2527.7,7248.713-2527.676,7246.229-2527.676Z" fill="#141f35"/>
    <g id="Grupo_117" data-name="Grupo 117">
      <path id="Trazado_103" data-name="Trazado 103" d="M7294.037-2454.735a1.138,1.138,0,0,1-1.138-1.139v-6.449a1.138,1.138,0,0,1,1.138-1.138,1.138,1.138,0,0,1,1.138,1.138v6.45A1.138,1.138,0,0,1,7294.037-2454.735Z" fill="#2a7de1"/>
      <path id="Trazado_104" data-name="Trazado 104" d="M7294.037-2425.9a1.138,1.138,0,0,1-1.138-1.138v-6.449a1.138,1.138,0,0,1,1.138-1.138,1.137,1.137,0,0,1,1.138,1.138v6.449A1.137,1.137,0,0,1,7294.037-2425.9Z" fill="#2a7de1"/>
      <path id="Trazado_105" data-name="Trazado 105" d="M7311.678-2443.545h-6.449a1.138,1.138,0,0,1-1.139-1.137,1.139,1.139,0,0,1,1.139-1.139h6.449a1.138,1.138,0,0,1,1.138,1.139A1.138,1.138,0,0,1,7311.678-2443.545Z" fill="#2a7de1"/>
      <path id="Trazado_106" data-name="Trazado 106" d="M7282.845-2443.545H7276.4a1.137,1.137,0,0,1-1.138-1.137,1.138,1.138,0,0,1,1.138-1.138h6.449a1.137,1.137,0,0,1,1.138,1.138A1.137,1.137,0,0,1,7282.845-2443.545Z" fill="#2a7de1"/>
      <path id="Trazado_107" data-name="Trazado 107" d="M7306.511-2431.07a1.136,1.136,0,0,1-.805-.333l-4.56-4.56a1.137,1.137,0,0,1,0-1.609,1.136,1.136,0,0,1,1.609,0l4.561,4.56a1.138,1.138,0,0,1,0,1.609A1.135,1.135,0,0,1,7306.511-2431.07Z" fill="#2a7de1"/>
      <path id="Trazado_108" data-name="Trazado 108" d="M7286.124-2451.457a1.139,1.139,0,0,1-.805-.334l-4.56-4.56a1.137,1.137,0,0,1,0-1.609,1.137,1.137,0,0,1,1.609,0l4.561,4.56a1.138,1.138,0,0,1,0,1.61A1.143,1.143,0,0,1,7286.124-2451.457Z" fill="#2a7de1"/>
      <path id="Trazado_109" data-name="Trazado 109" d="M7281.564-2431.069a1.134,1.134,0,0,1-.805-.333,1.137,1.137,0,0,1,0-1.609l4.56-4.561a1.139,1.139,0,0,1,1.609,0,1.137,1.137,0,0,1,0,1.609l-4.56,4.561A1.133,1.133,0,0,1,7281.564-2431.069Z" fill="#2a7de1"/>
    </g>
    <rect id="Rectángulo_23" data-name="Rectángulo 23" width="208.689" height="77.04" transform="translate(7340.262 -2480.027)" fill="#141f35"/>
    <g id="Grupo_119" data-name="Grupo 119">
      <g id="Grupo_118" data-name="Grupo 118">
        <path id="Trazado_110" data-name="Trazado 110" d="M7381.461-2413.355c-2.3-.072-4.676-2.662-4.676-8.344V-2455c0-5.467-2.445-5.467-3.38-5.467-1.079,0-3.453,0-3.453,6.186v38.842a.462.462,0,0,1,.36.359c0,.72-2.374,1.727-4.172,1.727-.935,0-1.8,0-1.8-1.367V-2455c0-5.467-2.3-5.467-3.38-5.467-.935,0-3.453,0-3.453,5.467v31.864c0,6.33-2.158,9.783-6.186,9.783a3.259,3.259,0,0,1-3.38-3.453c0-.647.935-.216,1.942-.575s2.014-2.086,2.014-6.833v-30.067c0-8.416,4.6-11.437,8.919-11.437a8.7,8.7,0,0,1,6.618,2.949,6.74,6.74,0,0,1,5.826-2.949c4.459,0,9.135,3.021,9.135,11.437v32.009a5.74,5.74,0,0,0,3.237,5.538C7386.783-2416.017,7383.906-2413.283,7381.461-2413.355Z" fill="#2a7de1"/>
        <path id="Trazado_111" data-name="Trazado 111" d="M7395.989-2422.562a6.7,6.7,0,0,0,6.69,4.459c5.61,0,7.912-4.675,8.775-9.063.648-3.236,4.676-1.8,4.388.72-.5,4.387-3.381,13.091-13.955,13.091-6.545,0-12.731-5.251-12.731-14.242,0-9.135,5.467-15.969,11.005-15.969,4.028,0,6.474,2.95,6.474,7.265A14.777,14.777,0,0,1,7395.989-2422.562Zm-.863-3.956a10.488,10.488,0,0,0,5.9-9.711c0-1.582-.575-2.517-1.51-2.517-3.525,0-4.6,7.912-4.46,10.933C7395.054-2427.381,7395.126-2426.95,7395.126-2426.518Z" fill="#2a7de1"/>
        <path id="Trazado_112" data-name="Trazado 112" d="M7410.95-2424.936c0-11,6.689-17.407,14.53-18.486v-16.256c0-2.086-.72-2.23-.72-2.733s1.3-.791,2.3-.791c2.374,0,3.884,1.438,3.884,3.165v38.626c0,1.582.72,3.308,2.446,3.308,2.877,0,4.172-4.6,4.819-7.768.288-1.51,1.007-2.158,1.727-2.158,1.15,0,2.517,1.583,2.517,2.949a1.894,1.894,0,0,1-.072.5c-1.223,4.747-4.1,11.221-10.286,11.221a6.381,6.381,0,0,1-5.466-2.8,8.866,8.866,0,0,1-6.4,2.8C7414.618-2413.355,7410.95-2417.383,7410.95-2424.936Zm14.53,4.028v-17.766c-4.676.863-8.991,4.244-8.991,13.235,0,5.179,2.3,7.336,4.819,7.336A4.933,4.933,0,0,0,7425.48-2420.908Z" fill="#2a7de1"/>
        <path id="Trazado_113" data-name="Trazado 113" d="M7445.116-2422.562a6.7,6.7,0,0,0,6.689,4.459c5.611,0,7.913-4.675,8.776-9.063.647-3.236,4.675-1.8,4.387.72-.5,4.387-3.38,13.091-13.954,13.091-6.545,0-12.731-5.251-12.731-14.242,0-9.135,5.466-15.969,11-15.969,4.028,0,6.473,2.95,6.473,7.265A14.776,14.776,0,0,1,7445.116-2422.562Zm-.863-3.956a10.488,10.488,0,0,0,5.9-9.711c0-1.582-.576-2.517-1.51-2.517-3.525,0-4.6,7.912-4.46,10.933C7444.181-2427.381,7444.253-2426.95,7444.253-2426.518Z" fill="#2a7de1"/>
        <path id="Trazado_114" data-name="Trazado 114" d="M7481.152-2424.5c-1.294,3.884-4.819,11.149-11.365,11.149-5.538,0-8.487-3.812-8.487-9.5v-32.728c0-5.394,2.949-9.207,6.545-9.207,6.33,0,6.4,7.553,6.4,11.581,0,10.574-6.546,25.1-7.481,25.966v4.172c0,2.878,1.151,4.963,3.813,4.963,3.308,0,5.754-4.531,6.4-7.7C7477.843-2430.043,7481.728-2426.806,7481.152-2424.5Zm-14.386-12.156c1.511-3.021,3.021-12.516,3.021-16.472,0-4.748-.791-6.905-1.942-6.905-.791,0-1.079,1.726-1.079,2.877Z" fill="#2a7de1"/>
        <path id="Trazado_115" data-name="Trazado 115" d="M7497.695-2424.5c-1.295,3.884-4.819,11.149-11.365,11.149-5.539,0-8.488-3.812-8.488-9.5v-32.728c0-5.394,2.949-9.207,6.546-9.207,6.33,0,6.4,7.553,6.4,11.581,0,10.574-6.546,25.1-7.481,25.966v4.172c0,2.878,1.151,4.963,3.812,4.963,3.309,0,5.755-4.531,6.4-7.7C7494.386-2430.043,7498.27-2426.806,7497.695-2424.5Zm-14.386-12.156c1.51-3.021,3.021-12.516,3.021-16.472,0-4.748-.791-6.905-1.942-6.905-.792,0-1.079,1.726-1.079,2.877Z" fill="#2a7de1"/>
        <path id="Trazado_116" data-name="Trazado 116" d="M7497.19-2448.1a2.8,2.8,0,0,1-2.374,1.295c-1.942,0-2.8-.863-2.8-1.655a2,2,0,0,1,.575-1.079l6.546-7.552c.144-.792,1.367-1.367,2.374-1.367,1.366,0,2.949.863,2.949,2.086,0,.647-.5,1.007-.863,1.439Zm2.661,26.686c0,.647,0,3.308,1.87,3.308,2.878,0,4.172-4.6,4.82-7.768.863-4.388,4.747-1.007,4.172,1.3-1.295,4.747-4.1,11.221-10.286,11.221-3.813,0-6.042-3.093-6.042-6.761v-19.206a15.526,15.526,0,0,0-.288-2.3c0-.719.863-1.222,1.87-1.222,2.374,0,3.884,1.438,3.884,3.165Z" fill="#2a7de1"/>
        <path id="Trazado_117" data-name="Trazado 117" d="M7507.547-2439.322a15.5,15.5,0,0,0-.288-2.3c0-.719.863-1.222,1.87-1.222,2.374,0,3.885,1.438,3.885,3.165v3.236c1.942-4.028,4.531-7.121,8.056-7.121,4.819,0,5.97,3.957,5.97,7.265v14.89c0,.647,0,3.308,1.87,3.308,2.877,0,4.172-4.6,4.819-7.768.288-1.51,1.007-2.158,1.727-2.158,1.15,0,2.517,1.583,2.517,2.949a1.894,1.894,0,0,1-.072.5c-1.223,4.747-4.1,11.221-10.286,11.221-3.812,0-6.042-3.093-6.042-6.761v-14.6c0-2.23-.144-4.1-1.51-4.1-2.086,0-6.546,6.186-7.049,11.868v10.5c0,1.366.071,3.093-2.015,3.093-1.438,0-3.452-.5-3.452-3.165Z" fill="#2a7de1"/>
      </g>
    </g>
    <g id="Grupo_120" data-name="Grupo 120">
      <path id="Trazado_118" data-name="Trazado 118" d="M7167.346-2706.653a5.245,5.245,0,0,0,1.456,3.24,38.734,38.734,0,0,0-10.145-1.784,38.733,38.733,0,0,0-10.144,1.784l2.536-3.992v-23.859a10.392,10.392,0,0,1-2.161-3.616,9.453,9.453,0,0,0,4.7,1.456,9.447,9.447,0,0,0,4.7-1.456,10.382,10.382,0,0,1-2.16,3.616v23.2a26.378,26.378,0,0,0,3.992.329c6.153,0,8.689-2.912,8.689-2.912A7.074,7.074,0,0,0,7167.346-2706.653Z" fill="#fff"/>
      <path id="Trazado_119" data-name="Trazado 119" d="M7185.663-2730.277v9.487h2.912l3.616-2.865v7.937l-3.616-2.865h-2.912v10.521a26.378,26.378,0,0,0,3.992.329c6.152,0,8.689-2.912,8.689-2.912a7.073,7.073,0,0,0-1.456,3.992,5.245,5.245,0,0,0,1.456,3.24,38.75,38.75,0,0,0-10.145-1.784,38.735,38.735,0,0,0-10.145,1.784l2.536-4.32v-22.779l-2.536-4.368a37.84,37.84,0,0,0,10.145,1.832,37.855,37.855,0,0,0,10.145-1.832,5.245,5.245,0,0,0-1.456,3.241,7.077,7.077,0,0,0,1.456,3.992s-2.537-2.865-8.689-2.865A35.129,35.129,0,0,0,7185.663-2730.277Z" fill="#fff"/>
      <path id="Trazado_120" data-name="Trazado 120" d="M7221.545-2716.422v9.393a10.4,10.4,0,0,1,2.161,3.616,9.456,9.456,0,0,0-4.7-1.456,9.45,9.45,0,0,0-4.7,1.456,10.387,10.387,0,0,1,2.16-3.616v-9.3l-7.608-13.48-3.241-5.072a14.624,14.624,0,0,0,5.448,1.456,10.546,10.546,0,0,0,4.837-1.456l-1.831,4.7,5.4,9.675h1.221l4.837-9.675-1.831-4.7a6.543,6.543,0,0,0,3.616,1.08,9.072,9.072,0,0,0,4.321-1.08l-2.865,4.7Z" fill="#fff"/>
      <path id="Trazado_121" data-name="Trazado 121" d="M7286.031-2720.039s.376-3.287-2.161-3.287c-2.959,0-5.072,5.213-7.8,10.238,3.147,3.476,5.636,5.683,5.636,5.683l4.321,3.992a32.325,32.325,0,0,0-5.073-.7,7.667,7.667,0,0,0-2.865.7s-2.019-1.972-4.743-5.166c-2.208,2.959-4.791,5.166-8.266,5.166a7.3,7.3,0,0,1-7.609-7.608c0-5.777,6.857-7.233,6.857-7.233l.376.376a8.8,8.8,0,0,0-2.536,6.528c0,3.241,1.456,5.4,4.368,5.4,2.16,0,3.9-1.738,5.448-4.18-1.033-1.221-2.161-2.63-3.288-4.133-3.992-4.7-7.233-8.689-7.233-13.009,0-4.462,2.724-7.609,7.233-7.609,3.945,0,6.857,2.16,6.857,5.777,0,4.978-5.777,7.233-5.777,7.233l-.375-.329a8.167,8.167,0,0,0,2.912-6.153c0-2.3-.752-3.992-3.288-3.992a3.74,3.74,0,0,0-3.616,3.992c0,3.241,3.851,7.186,7.138,11.178.705.846,1.362,1.691,1.973,2.4,2.583-5.026,5.166-10.333,9.346-10.333,2.912,0,3.992,1.785,3.992,4.321,0,2.207-1.08,3.616-2.912,3.616-1.784,0-2.536-.939-2.536-2.16a1.984,1.984,0,0,1,1.832-2.161A1.6,1.6,0,0,1,7286.031-2720.039Z" fill="#fff"/>
      <path id="Trazado_122" data-name="Trazado 122" d="M7321.96-2730.277v9.487h2.912l3.616-2.865v7.937l-3.616-2.865h-2.912v10.521a26.385,26.385,0,0,0,3.992.329c6.153,0,8.689-2.912,8.689-2.912a7.073,7.073,0,0,0-1.456,3.992,5.245,5.245,0,0,0,1.456,3.24,38.74,38.74,0,0,0-10.145-1.784,38.733,38.733,0,0,0-10.144,1.784l2.536-4.32v-22.779l-2.536-4.368a37.838,37.838,0,0,0,10.144,1.832,37.845,37.845,0,0,0,10.145-1.832,5.245,5.245,0,0,0-1.456,3.241,7.077,7.077,0,0,0,1.456,3.992s-2.536-2.865-8.689-2.865A35.138,35.138,0,0,0,7321.96-2730.277Z" fill="#fff"/>
      <path id="Trazado_123" data-name="Trazado 123" d="M7347.369-2704.587c0-1.362,1.127-2.16,3.335-2.16a14.771,14.771,0,0,1,4.509.892c3.287-2.113,7.655-6.669,7.655-15.64,0-7.232-1.832-10.849-6.528-10.849-3.8,0-6.153,3.617-6.153,10.849,0,9.394,6.529,11.93,6.529,11.93l-.376.376s-11.6-.376-11.6-12.681c0-7.938,4.744-13.01,11.6-13.01,7.937,0,11.929,5.072,11.929,13.385,0,8.219-5.636,13.574-10.849,16.392a25.477,25.477,0,0,0,7.937,1.831c2.912,0,3.993-1.456,3.993-1.456s-.376,4.932-5.4,4.932c-3.616,0-7.984-2.208-10.99-3.476a11.437,11.437,0,0,1-3.146.564C7348.168-2702.708,7347.369-2703.319,7347.369-2704.587Z" fill="#fff"/>
      <path id="Trazado_124" data-name="Trazado 124" d="M7402.414-2734.88a10.387,10.387,0,0,1-2.16,3.616v17.707c0,5.166-2.114,10.144-8.313,10.144-7.468,0-10.521-3.851-10.521-10.144v-17.707a11.318,11.318,0,0,1-2.16-3.616,9.45,9.45,0,0,0,4.7,1.456,9.449,9.449,0,0,0,4.7-1.456,10.382,10.382,0,0,1-2.16,3.616v17.707c0,4.79,1.315,7.608,5.448,7.608,3.569,0,5.4-2.771,5.4-7.608v-17.707a10.4,10.4,0,0,1-2.161-3.616,6.984,6.984,0,0,0,3.617,1.456A6.775,6.775,0,0,0,7402.414-2734.88Z" fill="#fff"/>
      <path id="Trazado_125" data-name="Trazado 125" d="M7421.436-2707.029a10.387,10.387,0,0,1,2.16,3.616,9.45,9.45,0,0,0-4.7-1.456,9.449,9.449,0,0,0-4.7,1.456,10.391,10.391,0,0,1,2.16-3.616v-24.235a10.391,10.391,0,0,1-2.16-3.616,9.449,9.449,0,0,0,4.7,1.456,9.45,9.45,0,0,0,4.7-1.456,10.387,10.387,0,0,1-2.16,3.616Z" fill="#fff"/>
      <path id="Trazado_126" data-name="Trazado 126" d="M7459.291-2719.146c0,9.158-4.274,15.733-11.695,15.733-3.475,0-4.931-1.456-7.092-1.456a9.447,9.447,0,0,0-4.7,1.456,10.391,10.391,0,0,1,2.16-3.616v-24.235a10.391,10.391,0,0,1-2.16-3.616,9.447,9.447,0,0,0,4.7,1.456c2.161,0,3.617-1.456,7.092-1.456C7455.017-2734.88,7459.291-2728.3,7459.291-2719.146Zm-5.4,0c0-8.219-2.208-13.2-6.294-13.2a7.061,7.061,0,0,0-4.556,1.456v23.483a7.061,7.061,0,0,0,4.556,1.456C7451.682-2705.949,7453.89-2710.88,7453.89-2719.146Z" fill="#fff"/>
      <path id="Trazado_127" data-name="Trazado 127" d="M7493.623-2703.413a9.45,9.45,0,0,0-4.7-1.456,9.455,9.455,0,0,0-4.7,1.456l1.832-4.7-2.207-9.393c-2.584.281-2.865,4.32-2.865,4.32h-1.832s-.282-3.9-2.771-4.32l-1.926,9.393,1.832,4.7a6.544,6.544,0,0,0-3.616-1.08,7.1,7.1,0,0,0-3.993,1.08l2.537-4.7,5.635-23.2a14.289,14.289,0,0,0-4.931.8c2.114-3.9,5.824-3.992,9.393-3.992,3.852,0,7.609-.376,9.065-1.456a6.615,6.615,0,0,1-4.7,4.18l5.4,23.295Zm-10.144-15.921-2.818-11.93c-.517,0-.986-.047-1.5-.047l-2.4,12.024c1.925.282,2.912,2.113,3.287,2.865C7480.473-2717.174,7481.459-2719.052,7483.479-2719.334Z" fill="#fff"/>
      <path id="Trazado_128" data-name="Trazado 128" d="M7527.252-2719.146c0,9.158-4.274,15.733-11.695,15.733-3.475,0-4.931-1.456-7.092-1.456a9.45,9.45,0,0,0-4.7,1.456,10.387,10.387,0,0,1,2.16-3.616v-24.235a10.387,10.387,0,0,1-2.16-3.616,9.45,9.45,0,0,0,4.7,1.456c2.161,0,3.617-1.456,7.092-1.456C7522.978-2734.88,7527.252-2728.3,7527.252-2719.146Zm-5.4,0c0-8.219-2.207-13.2-6.293-13.2a7.061,7.061,0,0,0-4.556,1.456v23.483a7.061,7.061,0,0,0,4.556,1.456C7519.643-2705.949,7521.85-2710.88,7521.85-2719.146Z" fill="#fff"/>
    </g>
    <path id="Trazado_129" data-name="Trazado 129" d="M7292.642-2449.69a3.721,3.721,0,0,0-.334,1.185,12.8,12.8,0,0,0,.068,2.127,3.036,3.036,0,0,1-.246,1.731,4.134,4.134,0,0,0-.295.839c-.242,1.015.152,1.725,1.15,1.809a14.891,14.891,0,0,0,3.357.1c.639-.093,1.3-.075,1.929-.188a6.082,6.082,0,0,0,1.5-.484.733.733,0,0,0,.047-1.209,2.693,2.693,0,0,0-1.141-.408,3.357,3.357,0,0,1-2.152-.89c.527-.485.983-.934,1.469-1.352,2.249-1.943,4.575-3.8,6.738-5.833a75.115,75.115,0,0,1,9.083-7.183c1.471-1.006,2.937-2.027,4.418-3.022a19.9,19.9,0,0,1,1.833-1.1q5.931-3.1,11.88-6.164a23.144,23.144,0,0,1,2.456-1.053c5.021-1.871,10.178-3.32,15.29-4.905a91.619,91.619,0,0,1,12.517-2.8,176.036,176.036,0,0,1,20.726-2.3,62.8,62.8,0,0,1,11.563.354c1.644.235,3.307.334,4.962.5,2.305.228,4.609.457,6.913.7a6.58,6.58,0,0,1,.958.232c.078.129.135.177.134.229a3.189,3.189,0,0,0,1.278,2.439,4.435,4.435,0,0,0,2.6,1.09,3.022,3.022,0,0,0,2.667-1.182c1.411-1.821,1.285-3.248-.3-4.918a2.462,2.462,0,0,0-1.721-.791c-1.864-.131-1.863-.148-3.208,1.009l-.585.5a45.031,45.031,0,0,0-8.527-1.7,35.9,35.9,0,0,1-4.245-.514,50.756,50.756,0,0,0-11.551-.573,139.085,139.085,0,0,0-18.091,1.769c-2.988.516-5.991.951-8.982,1.454a27.4,27.4,0,0,0-3.129.695c-3.824,1.119-7.64,2.272-11.456,3.424a76.258,76.258,0,0,0-16.165,6.559c-1.03.594-2.1,1.128-3.165,1.652a69.277,69.277,0,0,0-9.9,6.015,63.6,63.6,0,0,0-9.871,8.172c-.806.871-1.685,1.676-2.543,2.5a7.707,7.707,0,0,1-1.207,1.053,15.221,15.221,0,0,0-3.5,3.008.761.761,0,0,1-.993.313c-.053-.289-.117-.627-.176-.968-.1-.585-.167-1.178-.311-1.754-.176-.7-.641-1.169-1-1.091C7292.89-2450.508,7292.8-2450.059,7292.642-2449.69Z" fill="#fff"/>
    <path id="Trazado_130" data-name="Trazado 130" d="M7140.4-2753.508a6,6,0,0,1-5.993-6,4.491,4.491,0,0,1,4.485-4.487,3.282,3.282,0,0,1,3.279,3.277,2.3,2.3,0,0,1-.678,1.638,1.544,1.544,0,0,0-.455,1.1v0a1.547,1.547,0,0,0,.456,1.1,1.554,1.554,0,0,0,2.2,0,5.389,5.389,0,0,0,1.587-3.834v0a6.336,6.336,0,0,0-1.871-4.508,6.337,6.337,0,0,0-4.511-1.871,7.607,7.607,0,0,0-7.573,7.081h-.018v59.665h3.1v-52.322a9.078,9.078,0,0,0,5.992,2.268h389.613v-3.1Z" fill="#2a7de1"/>
    <path id="Trazado_131" data-name="Trazado 131" d="M7537.948-2686.01a6,6,0,0,1,5.993,6,4.49,4.49,0,0,1-4.485,4.486,3.282,3.282,0,0,1-3.279-3.276,2.3,2.3,0,0,1,.678-1.639,1.543,1.543,0,0,0,.455-1.1h0a1.544,1.544,0,0,0-.456-1.1,1.554,1.554,0,0,0-2.195,0,5.387,5.387,0,0,0-1.587,3.833v0a6.336,6.336,0,0,0,1.871,4.509,6.341,6.341,0,0,0,4.511,1.871,7.608,7.608,0,0,0,7.573-7.082h.018v-40.348h-3.1v33.006a9.07,9.07,0,0,0-5.992-2.269H7523.39v3.1Z" fill="#2a7de1"/>
    <path id="Trazado_132" data-name="Trazado 132" d="M7538.03-2750.4a6,6,0,0,1,5.91,6v27.875h3.1V-2744.4a9.11,9.11,0,0,0-9.1-9.1H7523.39v3.1h14.64Z" fill="#2a7de1"/>
    <g id="Grupo_122" data-name="Grupo 122">
      <g id="Grupo_121" data-name="Grupo 121">
        <path id="Trazado_133" data-name="Trazado 133" d="M7445.856-2390.868h-3.967v3.68h4.421v1.1h-5.739v-10.207h5.512v1.106h-4.194v3.225h3.967Z" fill="#fff"/>
        <path id="Trazado_134" data-name="Trazado 134" d="M7451.928-2387.688a4.673,4.673,0,0,0,2.363.666c1.347,0,2.135-.712,2.135-1.741,0-.954-.545-1.5-1.923-2.03-1.666-.59-2.7-1.453-2.7-2.892,0-1.59,1.318-2.771,3.3-2.771a4.637,4.637,0,0,1,2.257.5l-.364,1.075a4.06,4.06,0,0,0-1.938-.485c-1.393,0-1.923.833-1.923,1.53,0,.954.621,1.423,2.029,1.968,1.726.666,2.6,1.5,2.6,3,0,1.575-1.166,2.938-3.574,2.938a5.266,5.266,0,0,1-2.6-.651Z" fill="#fff"/>
        <path id="Trazado_135" data-name="Trazado 135" d="M7465.6-2395.169h-3.1v-1.121h7.556v1.121h-3.119v9.086H7465.6Z" fill="#fff"/>
        <path id="Trazado_136" data-name="Trazado 136" d="M7475.793-2389.293l-1.06,3.21h-1.363l3.468-10.207h1.59l3.483,10.207H7480.5l-1.09-3.21Zm3.347-1.03-1-2.938c-.227-.666-.378-1.272-.53-1.863h-.03c-.151.606-.318,1.227-.515,1.848l-1,2.953Z" fill="#fff"/>
        <path id="Trazado_137" data-name="Trazado 137" d="M7496.448-2389.293l-1.06,3.21h-1.363l3.468-10.207h1.59l3.483,10.207h-1.408l-1.091-3.21Zm3.347-1.03-1-2.938c-.227-.666-.378-1.272-.53-1.863h-.03c-.152.606-.318,1.227-.515,1.848l-1,2.953Z" fill="#fff"/>
        <path id="Trazado_138" data-name="Trazado 138" d="M7515.059-2386.416a6.551,6.551,0,0,1-2.7.484,4.769,4.769,0,0,1-5.042-5.163,5.079,5.079,0,0,1,5.33-5.361,5.468,5.468,0,0,1,2.423.454l-.318,1.075a4.807,4.807,0,0,0-2.06-.424c-2.392,0-3.982,1.53-3.982,4.21,0,2.5,1.438,4.1,3.922,4.1a5.282,5.282,0,0,0,2.15-.424Z" fill="#fff"/>
        <path id="Trazado_139" data-name="Trazado 139" d="M7522.509-2389.293l-1.06,3.21h-1.363l3.468-10.207h1.59l3.483,10.207h-1.409l-1.09-3.21Zm3.346-1.03-1-2.938c-.227-.666-.379-1.272-.53-1.863h-.031c-.151.606-.317,1.227-.514,1.848l-1,2.953Zm.727-8.283-1.923,1.771h-1.09l1.408-1.771Z" fill="#fff"/>
      </g>
    </g>
    <path id="Trazado_140" data-name="Trazado 140" d="M7484.305-2637.218a27.559,27.559,0,0,0-9.882,1.817l-3.492,1.338.149-3.739c.015-.365.029-.731.029-1.1a26.108,26.108,0,0,0-25.858-26.293,26.067,26.067,0,0,0-25.619,22.775l-.36,2.737-2.679-.667a15.267,15.267,0,0,0-3.689-.453,15.546,15.546,0,0,0-13.565,8.13l-.9,1.632-1.817-.421a25.054,25.054,0,0,0-5.63-.642c-12.943,0-23.473,9.85-23.473,21.957s10.53,21.958,23.473,21.958c.747,0,1.487-.037,2.216-.1l.365-.032.36.075a2.781,2.781,0,0,0,.585.059h93.232a2.857,2.857,0,0,0,1.282-.3l.3-.147.326-.065c12.054-2.35,20.8-12.443,20.8-24C7510.461-2626.221,7498.728-2637.218,7484.305-2637.218Z" fill="#141f35" stroke="#2a7de1" stroke-linecap="round" stroke-linejoin="round" stroke-width="2.839"/>
    <path id="Trazado_141" data-name="Trazado 141" d="M7537.829-2555.927h-78.86c-11.629-1.129-20.2-12.176-19.153-24.673.985-11.72,10.134-20.692,21.084-20.676a19.556,19.556,0,0,1,7.51,1.537c5.57-17.226,23.079-26.339,39.109-20.353a32.04,32.04,0,0,1,19.181,21.137c10.5-5.5,23.152-.806,28.266,10.475s.75,24.881-9.747,30.377a20.033,20.033,0,0,1-7.247,2.192Z" fill="#141f35" stroke="#2a7de1" stroke-linecap="round" stroke-linejoin="round" stroke-width="2.839"/>
  </g>
</svg>
