<svg xmlns="http://www.w3.org/2000/svg" width="180.688" height="106.66" viewBox="0 0 180.688 106.66">
  <g id="Grupo_126" data-name="Grupo 126" transform="translate(-7992.517 1859.503)">
    <path id="Trazado_96" data-name="Trazado 96" d="M8103.088-1830.735a25.379,25.379,0,0,0-9.1,1.673l-3.217,1.232.138-3.443c.015-.336.027-.674.027-1.012a24.048,24.048,0,0,0-23.818-24.219,24.009,24.009,0,0,0-23.6,20.978l-.332,2.521-2.468-.615a14.058,14.058,0,0,0-3.4-.418,14.321,14.321,0,0,0-12.5,7.489l-.827,1.5-1.673-.388a23.112,23.112,0,0,0-5.186-.591c-11.923,0-21.621,9.073-21.621,20.225s9.7,20.226,21.621,20.226c.688,0,1.369-.034,2.04-.094l.336-.03.332.069a2.6,2.6,0,0,0,.539.055h85.876a2.627,2.627,0,0,0,1.181-.28l.274-.136.3-.06c11.1-2.164,19.163-11.461,19.163-22.107C8127.18-1820.606,8116.372-1830.735,8103.088-1830.735Z" transform="translate(0 0)" fill="#111f37" stroke="#2a7de1" stroke-linecap="round" stroke-linejoin="round" stroke-width="6"/>
    <path id="Trazado_97" data-name="Trazado 97" d="M8467.35-1567.15h-72.639c-10.711-1.04-18.609-11.216-17.642-22.727.908-10.8,9.335-19.059,19.421-19.045a18.014,18.014,0,0,1,6.917,1.416c5.13-15.867,21.259-24.261,36.023-18.747a29.515,29.515,0,0,1,17.669,19.469c9.668-5.062,21.325-.742,26.035,9.649s.691,22.918-8.978,27.98a18.457,18.457,0,0,1-6.676,2.019Z" transform="translate(-314.962 -188.708)" fill="#111f37" stroke="#2a7de1" stroke-linecap="round" stroke-linejoin="round" stroke-width="6"/>
  </g>
</svg>
